ISO-10303-21;
HEADER;
/* Generated by software containing ST-Developer
 * from STEP Tools, Inc. (www.steptools.com) 
 */

FILE_DESCRIPTION(
/* description */ (''),
/* implementation_level */ '2;1');

FILE_NAME(
/* name */ 'loadcell mount a.step',
/* time_stamp */ '2026-09-01T05:05:09-07:00',
/* author */ (''),
/* organization */ (''),
/* preprocessor_version */ 'ST-DEVELOPER v20.1',
/* originating_system */ 'Autodesk Translation Framework v15.8.0.0',
/* authorisation */ '');

FILE_SCHEMA (('AUTOMOTIVE_DESIGN { 1 0 10303 214 3 1 1 }'));
ENDSEC;

DATA;
#10=MECHANICAL_DESIGN_GEOMETRIC_PRESENTATION_REPRESENTATION('',(#13),#1919);
#11=SHAPE_REPRESENTATION_RELATIONSHIP('SRR','None',#1925,#12);
#12=ADVANCED_BREP_SHAPE_REPRESENTATION('',(#14),#1918);
#13=STYLED_ITEM('',(#1942),#14);
#14=MANIFOLD_SOLID_BREP('Body4917',#1183);
#15=CYLINDRICAL_SURFACE('',#1210,8.);
#16=CYLINDRICAL_SURFACE('',#1213,8.);
#17=CYLINDRICAL_SURFACE('',#1217,8.);
#18=CYLINDRICAL_SURFACE('',#1224,8.);
#19=CYLINDRICAL_SURFACE('',#1226,8.);
#20=CYLINDRICAL_SURFACE('',#1233,8.);
#21=CYLINDRICAL_SURFACE('',#1235,8.);
#22=CYLINDRICAL_SURFACE('',#1242,8.);
#23=CYLINDRICAL_SURFACE('',#1244,2.6);
#24=CYLINDRICAL_SURFACE('',#1249,2.);
#25=CYLINDRICAL_SURFACE('',#1255,2.);
#26=CYLINDRICAL_SURFACE('',#1258,2.);
#27=CYLINDRICAL_SURFACE('',#1260,11.8217252776459);
#28=CYLINDRICAL_SURFACE('',#1264,2.);
#29=CIRCLE('',#1193,2.6);
#30=CIRCLE('',#1194,11.8217252776459);
#31=CIRCLE('',#1204,8.);
#32=CIRCLE('',#1205,8.);
#33=CIRCLE('',#1206,2.);
#34=CIRCLE('',#1211,8.);
#35=CIRCLE('',#1214,8.);
#36=CIRCLE('',#1216,2.);
#37=CIRCLE('',#1218,8.);
#38=CIRCLE('',#1219,8.);
#39=CIRCLE('',#1222,8.);
#40=CIRCLE('',#1223,2.);
#41=CIRCLE('',#1225,8.);
#42=CIRCLE('',#1227,8.);
#43=CIRCLE('',#1228,8.);
#44=CIRCLE('',#1231,8.);
#45=CIRCLE('',#1232,2.);
#46=CIRCLE('',#1234,8.);
#47=CIRCLE('',#1236,8.);
#48=CIRCLE('',#1237,8.);
#49=CIRCLE('',#1239,8.);
#50=CIRCLE('',#1240,2.);
#51=CIRCLE('',#1243,8.);
#52=CIRCLE('',#1245,2.6);
#53=CIRCLE('',#1247,11.8217252776459);
#54=CIRCLE('',#1250,2.);
#55=CIRCLE('',#1256,2.);
#56=CIRCLE('',#1265,2.);
#57=FACE_BOUND('',#126,.T.);
#58=FACE_BOUND('',#127,.T.);
#59=FACE_BOUND('',#142,.T.);
#60=FACE_BOUND('',#150,.T.);
#61=FACE_BOUND('',#154,.T.);
#62=FACE_BOUND('',#159,.T.);
#63=FACE_BOUND('',#163,.T.);
#64=FACE_BOUND('',#178,.T.);
#65=FACE_BOUND('',#181,.T.);
#66=FACE_BOUND('',#187,.T.);
#67=FACE_OUTER_BOUND('',#123,.T.);
#68=FACE_OUTER_BOUND('',#124,.T.);
#69=FACE_OUTER_BOUND('',#125,.T.);
#70=FACE_OUTER_BOUND('',#128,.T.);
#71=FACE_OUTER_BOUND('',#129,.T.);
#72=FACE_OUTER_BOUND('',#130,.T.);
#73=FACE_OUTER_BOUND('',#131,.T.);
#74=FACE_OUTER_BOUND('',#132,.T.);
#75=FACE_OUTER_BOUND('',#133,.T.);
#76=FACE_OUTER_BOUND('',#134,.T.);
#77=FACE_OUTER_BOUND('',#135,.T.);
#78=FACE_OUTER_BOUND('',#136,.T.);
#79=FACE_OUTER_BOUND('',#137,.T.);
#80=FACE_OUTER_BOUND('',#138,.T.);
#81=FACE_OUTER_BOUND('',#139,.T.);
#82=FACE_OUTER_BOUND('',#140,.T.);
#83=FACE_OUTER_BOUND('',#141,.T.);
#84=FACE_OUTER_BOUND('',#143,.T.);
#85=FACE_OUTER_BOUND('',#144,.T.);
#86=FACE_OUTER_BOUND('',#145,.T.);
#87=FACE_OUTER_BOUND('',#146,.T.);
#88=FACE_OUTER_BOUND('',#147,.T.);
#89=FACE_OUTER_BOUND('',#148,.T.);
#90=FACE_OUTER_BOUND('',#149,.T.);
#91=FACE_OUTER_BOUND('',#151,.T.);
#92=FACE_OUTER_BOUND('',#152,.T.);
#93=FACE_OUTER_BOUND('',#153,.T.);
#94=FACE_OUTER_BOUND('',#155,.T.);
#95=FACE_OUTER_BOUND('',#156,.T.);
#96=FACE_OUTER_BOUND('',#157,.T.);
#97=FACE_OUTER_BOUND('',#158,.T.);
#98=FACE_OUTER_BOUND('',#160,.T.);
#99=FACE_OUTER_BOUND('',#161,.T.);
#100=FACE_OUTER_BOUND('',#162,.T.);
#101=FACE_OUTER_BOUND('',#164,.T.);
#102=FACE_OUTER_BOUND('',#165,.T.);
#103=FACE_OUTER_BOUND('',#166,.T.);
#104=FACE_OUTER_BOUND('',#167,.T.);
#105=FACE_OUTER_BOUND('',#168,.T.);
#106=FACE_OUTER_BOUND('',#169,.T.);
#107=FACE_OUTER_BOUND('',#170,.T.);
#108=FACE_OUTER_BOUND('',#171,.T.);
#109=FACE_OUTER_BOUND('',#172,.T.);
#110=FACE_OUTER_BOUND('',#173,.T.);
#111=FACE_OUTER_BOUND('',#174,.T.);
#112=FACE_OUTER_BOUND('',#175,.T.);
#113=FACE_OUTER_BOUND('',#176,.T.);
#114=FACE_OUTER_BOUND('',#177,.T.);
#115=FACE_OUTER_BOUND('',#179,.T.);
#116=FACE_OUTER_BOUND('',#180,.T.);
#117=FACE_OUTER_BOUND('',#182,.T.);
#118=FACE_OUTER_BOUND('',#183,.T.);
#119=FACE_OUTER_BOUND('',#184,.T.);
#120=FACE_OUTER_BOUND('',#185,.T.);
#121=FACE_OUTER_BOUND('',#186,.T.);
#122=FACE_OUTER_BOUND('',#188,.T.);
#123=EDGE_LOOP('',(#749,#750,#751,#752));
#124=EDGE_LOOP('',(#753,#754,#755,#756,#757,#758,#759,#760,#761,#762,#763,
#764));
#125=EDGE_LOOP('',(#765,#766,#767,#768));
#126=EDGE_LOOP('',(#769,#770,#771,#772,#773,#774));
#127=EDGE_LOOP('',(#775,#776,#777,#778,#779,#780));
#128=EDGE_LOOP('',(#781,#782,#783,#784));
#129=EDGE_LOOP('',(#785,#786,#787,#788));
#130=EDGE_LOOP('',(#789,#790,#791,#792));
#131=EDGE_LOOP('',(#793,#794,#795,#796));
#132=EDGE_LOOP('',(#797,#798,#799,#800,#801,#802,#803,#804,#805,#806,#807,
#808,#809,#810));
#133=EDGE_LOOP('',(#811,#812,#813,#814));
#134=EDGE_LOOP('',(#815,#816,#817,#818));
#135=EDGE_LOOP('',(#819,#820,#821,#822));
#136=EDGE_LOOP('',(#823,#824,#825,#826,#827,#828,#829,#830));
#137=EDGE_LOOP('',(#831,#832,#833,#834,#835,#836));
#138=EDGE_LOOP('',(#837,#838,#839,#840,#841,#842,#843,#844,#845));
#139=EDGE_LOOP('',(#846,#847,#848,#849));
#140=EDGE_LOOP('',(#850,#851,#852,#853,#854,#855));
#141=EDGE_LOOP('',(#856,#857,#858,#859,#860,#861,#862,#863));
#142=EDGE_LOOP('',(#864));
#143=EDGE_LOOP('',(#865,#866,#867,#868));
#144=EDGE_LOOP('',(#869,#870,#871,#872));
#145=EDGE_LOOP('',(#873,#874,#875,#876,#877,#878,#879,#880,#881,#882,#883,
#884));
#146=EDGE_LOOP('',(#885,#886,#887,#888));
#147=EDGE_LOOP('',(#889,#890,#891,#892,#893,#894,#895,#896,#897,#898,#899,
#900,#901,#902,#903));
#148=EDGE_LOOP('',(#904,#905,#906,#907));
#149=EDGE_LOOP('',(#908,#909,#910,#911,#912,#913));
#150=EDGE_LOOP('',(#914));
#151=EDGE_LOOP('',(#915,#916,#917,#918));
#152=EDGE_LOOP('',(#919,#920,#921,#922));
#153=EDGE_LOOP('',(#923,#924,#925,#926,#927,#928));
#154=EDGE_LOOP('',(#929));
#155=EDGE_LOOP('',(#930,#931,#932,#933));
#156=EDGE_LOOP('',(#934,#935,#936,#937));
#157=EDGE_LOOP('',(#938,#939,#940,#941));
#158=EDGE_LOOP('',(#942,#943,#944,#945,#946,#947));
#159=EDGE_LOOP('',(#948));
#160=EDGE_LOOP('',(#949,#950,#951,#952));
#161=EDGE_LOOP('',(#953,#954,#955,#956));
#162=EDGE_LOOP('',(#957,#958,#959,#960,#961,#962,#963,#964,#965,#966));
#163=EDGE_LOOP('',(#967));
#164=EDGE_LOOP('',(#968,#969,#970,#971));
#165=EDGE_LOOP('',(#972,#973,#974,#975));
#166=EDGE_LOOP('',(#976,#977,#978,#979));
#167=EDGE_LOOP('',(#980,#981,#982,#983,#984,#985,#986,#987,#988,#989,#990,
#991,#992,#993));
#168=EDGE_LOOP('',(#994,#995,#996,#997));
#169=EDGE_LOOP('',(#998,#999,#1000,#1001));
#170=EDGE_LOOP('',(#1002,#1003,#1004,#1005));
#171=EDGE_LOOP('',(#1006,#1007,#1008,#1009));
#172=EDGE_LOOP('',(#1010,#1011,#1012,#1013));
#173=EDGE_LOOP('',(#1014,#1015,#1016,#1017));
#174=EDGE_LOOP('',(#1018,#1019,#1020,#1021));
#175=EDGE_LOOP('',(#1022,#1023,#1024,#1025));
#176=EDGE_LOOP('',(#1026,#1027,#1028,#1029));
#177=EDGE_LOOP('',(#1030,#1031,#1032,#1033,#1034,#1035,#1036,#1037,#1038,
#1039));
#178=EDGE_LOOP('',(#1040));
#179=EDGE_LOOP('',(#1041,#1042,#1043,#1044));
#180=EDGE_LOOP('',(#1045,#1046,#1047,#1048,#1049,#1050));
#181=EDGE_LOOP('',(#1051));
#182=EDGE_LOOP('',(#1052,#1053,#1054,#1055,#1056,#1057,#1058,#1059));
#183=EDGE_LOOP('',(#1060,#1061,#1062,#1063,#1064,#1065));
#184=EDGE_LOOP('',(#1066,#1067,#1068,#1069));
#185=EDGE_LOOP('',(#1070,#1071,#1072,#1073));
#186=EDGE_LOOP('',(#1074,#1075,#1076,#1077,#1078,#1079));
#187=EDGE_LOOP('',(#1080));
#188=EDGE_LOOP('',(#1081,#1082,#1083,#1084));
#189=LINE('',#1583,#329);
#190=LINE('',#1585,#330);
#191=LINE('',#1587,#331);
#192=LINE('',#1588,#332);
#193=LINE('',#1591,#333);
#194=LINE('',#1593,#334);
#195=LINE('',#1595,#335);
#196=LINE('',#1597,#336);
#197=LINE('',#1599,#337);
#198=LINE('',#1601,#338);
#199=LINE('',#1603,#339);
#200=LINE('',#1605,#340);
#201=LINE('',#1607,#341);
#202=LINE('',#1609,#342);
#203=LINE('',#1610,#343);
#204=LINE('',#1613,#344);
#205=LINE('',#1614,#345);
#206=LINE('',#1617,#346);
#207=LINE('',#1619,#347);
#208=LINE('',#1621,#348);
#209=LINE('',#1623,#349);
#210=LINE('',#1625,#350);
#211=LINE('',#1626,#351);
#212=LINE('',#1629,#352);
#213=LINE('',#1631,#353);
#214=LINE('',#1633,#354);
#215=LINE('',#1635,#355);
#216=LINE('',#1637,#356);
#217=LINE('',#1638,#357);
#218=LINE('',#1641,#358);
#219=LINE('',#1642,#359);
#220=LINE('',#1646,#360);
#221=LINE('',#1647,#361);
#222=LINE('',#1648,#362);
#223=LINE('',#1651,#363);
#224=LINE('',#1652,#364);
#225=LINE('',#1656,#365);
#226=LINE('',#1657,#366);
#227=LINE('',#1658,#367);
#228=LINE('',#1661,#368);
#229=LINE('',#1662,#369);
#230=LINE('',#1664,#370);
#231=LINE('',#1668,#371);
#232=LINE('',#1672,#372);
#233=LINE('',#1673,#373);
#234=LINE('',#1674,#374);
#235=LINE('',#1678,#375);
#236=LINE('',#1679,#376);
#237=LINE('',#1680,#377);
#238=LINE('',#1682,#378);
#239=LINE('',#1685,#379);
#240=LINE('',#1686,#380);
#241=LINE('',#1689,#381);
#242=LINE('',#1691,#382);
#243=LINE('',#1692,#383);
#244=LINE('',#1694,#384);
#245=LINE('',#1695,#385);
#246=LINE('',#1698,#386);
#247=LINE('',#1700,#387);
#248=LINE('',#1702,#388);
#249=LINE('',#1703,#389);
#250=LINE('',#1706,#390);
#251=LINE('',#1708,#391);
#252=LINE('',#1710,#392);
#253=LINE('',#1712,#393);
#254=LINE('',#1714,#394);
#255=LINE('',#1715,#395);
#256=LINE('',#1717,#396);
#257=LINE('',#1720,#397);
#258=LINE('',#1722,#398);
#259=LINE('',#1724,#399);
#260=LINE('',#1726,#400);
#261=LINE('',#1727,#401);
#262=LINE('',#1730,#402);
#263=LINE('',#1732,#403);
#264=LINE('',#1736,#404);
#265=LINE('',#1742,#405);
#266=LINE('',#1743,#406);
#267=LINE('',#1747,#407);
#268=LINE('',#1748,#408);
#269=LINE('',#1753,#409);
#270=LINE('',#1754,#410);
#271=LINE('',#1757,#411);
#272=LINE('',#1758,#412);
#273=LINE('',#1760,#413);
#274=LINE('',#1762,#414);
#275=LINE('',#1764,#415);
#276=LINE('',#1766,#416);
#277=LINE('',#1768,#417);
#278=LINE('',#1770,#418);
#279=LINE('',#1771,#419);
#280=LINE('',#1775,#420);
#281=LINE('',#1777,#421);
#282=LINE('',#1778,#422);
#283=LINE('',#1786,#423);
#284=LINE('',#1789,#424);
#285=LINE('',#1792,#425);
#286=LINE('',#1794,#426);
#287=LINE('',#1795,#427);
#288=LINE('',#1798,#428);
#289=LINE('',#1799,#429);
#290=LINE('',#1810,#430);
#291=LINE('',#1813,#431);
#292=LINE('',#1816,#432);
#293=LINE('',#1818,#433);
#294=LINE('',#1819,#434);
#295=LINE('',#1822,#435);
#296=LINE('',#1823,#436);
#297=LINE('',#1834,#437);
#298=LINE('',#1837,#438);
#299=LINE('',#1840,#439);
#300=LINE('',#1844,#440);
#301=LINE('',#1846,#441);
#302=LINE('',#1847,#442);
#303=LINE('',#1849,#443);
#304=LINE('',#1851,#444);
#305=LINE('',#1852,#445);
#306=LINE('',#1857,#446);
#307=LINE('',#1858,#447);
#308=LINE('',#1862,#448);
#309=LINE('',#1865,#449);
#310=LINE('',#1869,#450);
#311=LINE('',#1871,#451);
#312=LINE('',#1874,#452);
#313=LINE('',#1876,#453);
#314=LINE('',#1877,#454);
#315=LINE('',#1878,#455);
#316=LINE('',#1882,#456);
#317=LINE('',#1885,#457);
#318=LINE('',#1887,#458);
#319=LINE('',#1889,#459);
#320=LINE('',#1891,#460);
#321=LINE('',#1894,#461);
#322=LINE('',#1898,#462);
#323=LINE('',#1900,#463);
#324=LINE('',#1903,#464);
#325=LINE('',#1905,#465);
#326=LINE('',#1910,#466);
#327=LINE('',#1912,#467);
#328=LINE('',#1914,#468);
#329=VECTOR('',#1273,10.);
#330=VECTOR('',#1274,10.);
#331=VECTOR('',#1275,10.);
#332=VECTOR('',#1276,10.);
#333=VECTOR('',#1279,10.);
#334=VECTOR('',#1280,10.);
#335=VECTOR('',#1281,10.);
#336=VECTOR('',#1282,10.);
#337=VECTOR('',#1283,10.);
#338=VECTOR('',#1284,10.);
#339=VECTOR('',#1285,10.);
#340=VECTOR('',#1286,10.);
#341=VECTOR('',#1287,10.);
#342=VECTOR('',#1288,10.);
#343=VECTOR('',#1289,10.);
#344=VECTOR('',#1292,10.);
#345=VECTOR('',#1293,10.);
#346=VECTOR('',#1294,10.);
#347=VECTOR('',#1295,10.);
#348=VECTOR('',#1296,10.);
#349=VECTOR('',#1297,10.);
#350=VECTOR('',#1298,10.);
#351=VECTOR('',#1299,10.);
#352=VECTOR('',#1300,10.);
#353=VECTOR('',#1301,10.);
#354=VECTOR('',#1302,10.);
#355=VECTOR('',#1303,10.);
#356=VECTOR('',#1304,10.);
#357=VECTOR('',#1305,10.);
#358=VECTOR('',#1308,10.);
#359=VECTOR('',#1309,10.);
#360=VECTOR('',#1312,10.);
#361=VECTOR('',#1313,10.);
#362=VECTOR('',#1314,10.);
#363=VECTOR('',#1317,10.);
#364=VECTOR('',#1318,10.);
#365=VECTOR('',#1321,10.);
#366=VECTOR('',#1322,10.);
#367=VECTOR('',#1323,10.);
#368=VECTOR('',#1326,10.);
#369=VECTOR('',#1327,10.);
#370=VECTOR('',#1328,10.);
#371=VECTOR('',#1331,10.);
#372=VECTOR('',#1334,10.);
#373=VECTOR('',#1335,10.);
#374=VECTOR('',#1336,10.);
#375=VECTOR('',#1339,10.);
#376=VECTOR('',#1340,10.);
#377=VECTOR('',#1341,10.);
#378=VECTOR('',#1344,10.);
#379=VECTOR('',#1347,10.);
#380=VECTOR('',#1348,10.);
#381=VECTOR('',#1351,10.);
#382=VECTOR('',#1352,10.);
#383=VECTOR('',#1353,10.);
#384=VECTOR('',#1354,10.);
#385=VECTOR('',#1355,10.);
#386=VECTOR('',#1358,10.);
#387=VECTOR('',#1359,10.);
#388=VECTOR('',#1360,10.);
#389=VECTOR('',#1361,10.);
#390=VECTOR('',#1364,10.);
#391=VECTOR('',#1365,10.);
#392=VECTOR('',#1366,10.);
#393=VECTOR('',#1367,10.);
#394=VECTOR('',#1368,10.);
#395=VECTOR('',#1369,10.);
#396=VECTOR('',#1372,10.);
#397=VECTOR('',#1375,10.);
#398=VECTOR('',#1376,10.);
#399=VECTOR('',#1377,10.);
#400=VECTOR('',#1378,10.);
#401=VECTOR('',#1379,10.);
#402=VECTOR('',#1382,10.);
#403=VECTOR('',#1383,10.);
#404=VECTOR('',#1386,10.);
#405=VECTOR('',#1393,10.);
#406=VECTOR('',#1394,10.);
#407=VECTOR('',#1399,10.);
#408=VECTOR('',#1400,10.);
#409=VECTOR('',#1405,10.);
#410=VECTOR('',#1406,10.);
#411=VECTOR('',#1409,10.);
#412=VECTOR('',#1410,10.);
#413=VECTOR('',#1411,10.);
#414=VECTOR('',#1412,10.);
#415=VECTOR('',#1413,10.);
#416=VECTOR('',#1414,10.);
#417=VECTOR('',#1415,10.);
#418=VECTOR('',#1416,10.);
#419=VECTOR('',#1417,10.);
#420=VECTOR('',#1422,10.);
#421=VECTOR('',#1425,10.);
#422=VECTOR('',#1426,10.);
#423=VECTOR('',#1433,10.);
#424=VECTOR('',#1436,10.);
#425=VECTOR('',#1439,10.);
#426=VECTOR('',#1440,10.);
#427=VECTOR('',#1441,10.);
#428=VECTOR('',#1444,10.);
#429=VECTOR('',#1445,10.);
#430=VECTOR('',#1458,10.);
#431=VECTOR('',#1461,10.);
#432=VECTOR('',#1464,10.);
#433=VECTOR('',#1465,10.);
#434=VECTOR('',#1466,10.);
#435=VECTOR('',#1469,10.);
#436=VECTOR('',#1470,10.);
#437=VECTOR('',#1483,10.);
#438=VECTOR('',#1486,10.);
#439=VECTOR('',#1489,10.);
#440=VECTOR('',#1492,10.);
#441=VECTOR('',#1493,10.);
#442=VECTOR('',#1494,10.);
#443=VECTOR('',#1495,10.);
#444=VECTOR('',#1496,10.);
#445=VECTOR('',#1497,10.);
#446=VECTOR('',#1502,10.);
#447=VECTOR('',#1503,10.);
#448=VECTOR('',#1508,10.);
#449=VECTOR('',#1511,10.);
#450=VECTOR('',#1516,10.);
#451=VECTOR('',#1517,10.);
#452=VECTOR('',#1520,10.);
#453=VECTOR('',#1521,10.);
#454=VECTOR('',#1522,10.);
#455=VECTOR('',#1523,10.);
#456=VECTOR('',#1528,2.);
#457=VECTOR('',#1533,10.);
#458=VECTOR('',#1536,10.);
#459=VECTOR('',#1539,10.);
#460=VECTOR('',#1542,10.);
#461=VECTOR('',#1545,2.);
#462=VECTOR('',#1552,2.);
#463=VECTOR('',#1555,10.);
#464=VECTOR('',#1560,10.);
#465=VECTOR('',#1563,10.);
#466=VECTOR('',#1570,2.);
#467=VECTOR('',#1573,10.);
#468=VECTOR('',#1576,10.);
#469=VERTEX_POINT('',#1581);
#470=VERTEX_POINT('',#1582);
#471=VERTEX_POINT('',#1584);
#472=VERTEX_POINT('',#1586);
#473=VERTEX_POINT('',#1590);
#474=VERTEX_POINT('',#1592);
#475=VERTEX_POINT('',#1594);
#476=VERTEX_POINT('',#1596);
#477=VERTEX_POINT('',#1598);
#478=VERTEX_POINT('',#1600);
#479=VERTEX_POINT('',#1602);
#480=VERTEX_POINT('',#1604);
#481=VERTEX_POINT('',#1606);
#482=VERTEX_POINT('',#1608);
#483=VERTEX_POINT('',#1612);
#484=VERTEX_POINT('',#1615);
#485=VERTEX_POINT('',#1616);
#486=VERTEX_POINT('',#1618);
#487=VERTEX_POINT('',#1620);
#488=VERTEX_POINT('',#1622);
#489=VERTEX_POINT('',#1624);
#490=VERTEX_POINT('',#1627);
#491=VERTEX_POINT('',#1628);
#492=VERTEX_POINT('',#1630);
#493=VERTEX_POINT('',#1632);
#494=VERTEX_POINT('',#1634);
#495=VERTEX_POINT('',#1636);
#496=VERTEX_POINT('',#1640);
#497=VERTEX_POINT('',#1644);
#498=VERTEX_POINT('',#1645);
#499=VERTEX_POINT('',#1650);
#500=VERTEX_POINT('',#1654);
#501=VERTEX_POINT('',#1655);
#502=VERTEX_POINT('',#1660);
#503=VERTEX_POINT('',#1663);
#504=VERTEX_POINT('',#1665);
#505=VERTEX_POINT('',#1667);
#506=VERTEX_POINT('',#1669);
#507=VERTEX_POINT('',#1671);
#508=VERTEX_POINT('',#1676);
#509=VERTEX_POINT('',#1677);
#510=VERTEX_POINT('',#1684);
#511=VERTEX_POINT('',#1688);
#512=VERTEX_POINT('',#1690);
#513=VERTEX_POINT('',#1693);
#514=VERTEX_POINT('',#1697);
#515=VERTEX_POINT('',#1699);
#516=VERTEX_POINT('',#1701);
#517=VERTEX_POINT('',#1705);
#518=VERTEX_POINT('',#1707);
#519=VERTEX_POINT('',#1709);
#520=VERTEX_POINT('',#1711);
#521=VERTEX_POINT('',#1713);
#522=VERTEX_POINT('',#1719);
#523=VERTEX_POINT('',#1721);
#524=VERTEX_POINT('',#1723);
#525=VERTEX_POINT('',#1725);
#526=VERTEX_POINT('',#1729);
#527=VERTEX_POINT('',#1731);
#528=VERTEX_POINT('',#1733);
#529=VERTEX_POINT('',#1735);
#530=VERTEX_POINT('',#1738);
#531=VERTEX_POINT('',#1741);
#532=VERTEX_POINT('',#1746);
#533=VERTEX_POINT('',#1750);
#534=VERTEX_POINT('',#1751);
#535=VERTEX_POINT('',#1756);
#536=VERTEX_POINT('',#1759);
#537=VERTEX_POINT('',#1761);
#538=VERTEX_POINT('',#1763);
#539=VERTEX_POINT('',#1765);
#540=VERTEX_POINT('',#1767);
#541=VERTEX_POINT('',#1769);
#542=VERTEX_POINT('',#1773);
#543=VERTEX_POINT('',#1779);
#544=VERTEX_POINT('',#1782);
#545=VERTEX_POINT('',#1783);
#546=VERTEX_POINT('',#1785);
#547=VERTEX_POINT('',#1787);
#548=VERTEX_POINT('',#1791);
#549=VERTEX_POINT('',#1793);
#550=VERTEX_POINT('',#1797);
#551=VERTEX_POINT('',#1801);
#552=VERTEX_POINT('',#1806);
#553=VERTEX_POINT('',#1807);
#554=VERTEX_POINT('',#1809);
#555=VERTEX_POINT('',#1811);
#556=VERTEX_POINT('',#1815);
#557=VERTEX_POINT('',#1817);
#558=VERTEX_POINT('',#1821);
#559=VERTEX_POINT('',#1825);
#560=VERTEX_POINT('',#1830);
#561=VERTEX_POINT('',#1831);
#562=VERTEX_POINT('',#1833);
#563=VERTEX_POINT('',#1835);
#564=VERTEX_POINT('',#1839);
#565=VERTEX_POINT('',#1841);
#566=VERTEX_POINT('',#1843);
#567=VERTEX_POINT('',#1845);
#568=VERTEX_POINT('',#1848);
#569=VERTEX_POINT('',#1850);
#570=VERTEX_POINT('',#1853);
#571=VERTEX_POINT('',#1856);
#572=VERTEX_POINT('',#1860);
#573=VERTEX_POINT('',#1864);
#574=VERTEX_POINT('',#1868);
#575=VERTEX_POINT('',#1870);
#576=VERTEX_POINT('',#1873);
#577=VERTEX_POINT('',#1875);
#578=VERTEX_POINT('',#1881);
#579=VERTEX_POINT('',#1893);
#580=VERTEX_POINT('',#1908);
#581=EDGE_CURVE('',#469,#470,#189,.T.);
#582=EDGE_CURVE('',#470,#471,#190,.T.);
#583=EDGE_CURVE('',#471,#472,#191,.T.);
#584=EDGE_CURVE('',#472,#469,#192,.T.);
#585=EDGE_CURVE('',#471,#473,#193,.T.);
#586=EDGE_CURVE('',#474,#473,#194,.T.);
#587=EDGE_CURVE('',#474,#475,#195,.T.);
#588=EDGE_CURVE('',#475,#476,#196,.T.);
#589=EDGE_CURVE('',#476,#477,#197,.T.);
#590=EDGE_CURVE('',#477,#478,#198,.T.);
#591=EDGE_CURVE('',#478,#479,#199,.T.);
#592=EDGE_CURVE('',#479,#480,#200,.T.);
#593=EDGE_CURVE('',#481,#480,#201,.T.);
#594=EDGE_CURVE('',#481,#482,#202,.T.);
#595=EDGE_CURVE('',#482,#472,#203,.T.);
#596=EDGE_CURVE('',#470,#483,#204,.T.);
#597=EDGE_CURVE('',#473,#483,#205,.T.);
#598=EDGE_CURVE('',#484,#485,#206,.T.);
#599=EDGE_CURVE('',#485,#486,#207,.T.);
#600=EDGE_CURVE('',#486,#487,#208,.T.);
#601=EDGE_CURVE('',#488,#487,#209,.T.);
#602=EDGE_CURVE('',#488,#489,#210,.T.);
#603=EDGE_CURVE('',#484,#489,#211,.T.);
#604=EDGE_CURVE('',#490,#491,#212,.T.);
#605=EDGE_CURVE('',#491,#492,#213,.T.);
#606=EDGE_CURVE('',#492,#493,#214,.T.);
#607=EDGE_CURVE('',#494,#493,#215,.T.);
#608=EDGE_CURVE('',#494,#495,#216,.T.);
#609=EDGE_CURVE('',#490,#495,#217,.T.);
#610=EDGE_CURVE('',#483,#496,#218,.T.);
#611=EDGE_CURVE('',#496,#474,#219,.T.);
#612=EDGE_CURVE('',#497,#498,#220,.T.);
#613=EDGE_CURVE('',#498,#494,#221,.T.);
#614=EDGE_CURVE('',#493,#497,#222,.T.);
#615=EDGE_CURVE('',#499,#498,#223,.T.);
#616=EDGE_CURVE('',#495,#499,#224,.T.);
#617=EDGE_CURVE('',#500,#501,#225,.T.);
#618=EDGE_CURVE('',#501,#484,#226,.T.);
#619=EDGE_CURVE('',#489,#500,#227,.T.);
#620=EDGE_CURVE('',#502,#492,#228,.T.);
#621=EDGE_CURVE('',#477,#502,#229,.T.);
#622=EDGE_CURVE('',#476,#503,#230,.T.);
#623=EDGE_CURVE('',#503,#504,#29,.T.);
#624=EDGE_CURVE('',#504,#505,#231,.T.);
#625=EDGE_CURVE('',#506,#505,#30,.T.);
#626=EDGE_CURVE('',#507,#506,#232,.T.);
#627=EDGE_CURVE('',#507,#485,#233,.T.);
#628=EDGE_CURVE('',#497,#501,#234,.T.);
#629=EDGE_CURVE('',#508,#509,#235,.T.);
#630=EDGE_CURVE('',#509,#488,#236,.T.);
#631=EDGE_CURVE('',#487,#508,#237,.T.);
#632=EDGE_CURVE('',#500,#509,#238,.T.);
#633=EDGE_CURVE('',#499,#510,#239,.T.);
#634=EDGE_CURVE('',#510,#490,#240,.T.);
#635=EDGE_CURVE('',#511,#510,#241,.T.);
#636=EDGE_CURVE('',#511,#512,#242,.T.);
#637=EDGE_CURVE('',#512,#479,#243,.T.);
#638=EDGE_CURVE('',#478,#513,#244,.T.);
#639=EDGE_CURVE('',#513,#491,#245,.T.);
#640=EDGE_CURVE('',#514,#486,#246,.T.);
#641=EDGE_CURVE('',#515,#514,#247,.T.);
#642=EDGE_CURVE('',#516,#515,#248,.T.);
#643=EDGE_CURVE('',#508,#516,#249,.T.);
#644=EDGE_CURVE('',#517,#507,#250,.T.);
#645=EDGE_CURVE('',#518,#517,#251,.T.);
#646=EDGE_CURVE('',#519,#518,#252,.T.);
#647=EDGE_CURVE('',#520,#519,#253,.T.);
#648=EDGE_CURVE('',#521,#520,#254,.T.);
#649=EDGE_CURVE('',#514,#521,#255,.T.);
#650=EDGE_CURVE('',#502,#513,#256,.T.);
#651=EDGE_CURVE('',#515,#522,#257,.T.);
#652=EDGE_CURVE('',#523,#522,#258,.T.);
#653=EDGE_CURVE('',#523,#524,#259,.T.);
#654=EDGE_CURVE('',#525,#524,#260,.T.);
#655=EDGE_CURVE('',#525,#516,#261,.T.);
#656=EDGE_CURVE('',#526,#521,#262,.T.);
#657=EDGE_CURVE('',#527,#526,#263,.T.);
#658=EDGE_CURVE('',#528,#527,#31,.T.);
#659=EDGE_CURVE('',#528,#529,#264,.T.);
#660=EDGE_CURVE('',#522,#529,#32,.T.);
#661=EDGE_CURVE('',#530,#530,#33,.T.);
#662=EDGE_CURVE('',#520,#531,#265,.T.);
#663=EDGE_CURVE('',#531,#526,#266,.T.);
#664=EDGE_CURVE('',#532,#525,#267,.T.);
#665=EDGE_CURVE('',#532,#511,#268,.T.);
#666=EDGE_CURVE('',#533,#534,#34,.T.);
#667=EDGE_CURVE('',#534,#528,#269,.T.);
#668=EDGE_CURVE('',#527,#533,#270,.T.);
#669=EDGE_CURVE('',#535,#469,#271,.T.);
#670=EDGE_CURVE('',#535,#533,#272,.T.);
#671=EDGE_CURVE('',#536,#531,#273,.T.);
#672=EDGE_CURVE('',#537,#536,#274,.T.);
#673=EDGE_CURVE('',#538,#537,#275,.T.);
#674=EDGE_CURVE('',#538,#539,#276,.T.);
#675=EDGE_CURVE('',#540,#539,#277,.T.);
#676=EDGE_CURVE('',#540,#541,#278,.T.);
#677=EDGE_CURVE('',#496,#541,#279,.T.);
#678=EDGE_CURVE('',#542,#523,#35,.T.);
#679=EDGE_CURVE('',#529,#542,#280,.T.);
#680=EDGE_CURVE('',#535,#524,#281,.T.);
#681=EDGE_CURVE('',#534,#542,#282,.T.);
#682=EDGE_CURVE('',#543,#543,#36,.T.);
#683=EDGE_CURVE('',#544,#545,#37,.T.);
#684=EDGE_CURVE('',#545,#546,#283,.T.);
#685=EDGE_CURVE('',#546,#547,#38,.T.);
#686=EDGE_CURVE('',#547,#544,#284,.T.);
#687=EDGE_CURVE('',#545,#548,#285,.T.);
#688=EDGE_CURVE('',#549,#548,#286,.T.);
#689=EDGE_CURVE('',#546,#549,#287,.T.);
#690=EDGE_CURVE('',#550,#544,#288,.T.);
#691=EDGE_CURVE('',#550,#482,#289,.T.);
#692=EDGE_CURVE('',#548,#481,#39,.T.);
#693=EDGE_CURVE('',#551,#551,#40,.T.);
#694=EDGE_CURVE('',#480,#549,#41,.T.);
#695=EDGE_CURVE('',#552,#553,#42,.T.);
#696=EDGE_CURVE('',#553,#554,#290,.T.);
#697=EDGE_CURVE('',#554,#555,#43,.T.);
#698=EDGE_CURVE('',#555,#552,#291,.T.);
#699=EDGE_CURVE('',#553,#556,#292,.T.);
#700=EDGE_CURVE('',#557,#556,#293,.T.);
#701=EDGE_CURVE('',#557,#554,#294,.T.);
#702=EDGE_CURVE('',#558,#552,#295,.T.);
#703=EDGE_CURVE('',#541,#558,#296,.T.);
#704=EDGE_CURVE('',#556,#540,#44,.T.);
#705=EDGE_CURVE('',#559,#559,#45,.T.);
#706=EDGE_CURVE('',#539,#557,#46,.T.);
#707=EDGE_CURVE('',#560,#561,#47,.T.);
#708=EDGE_CURVE('',#561,#562,#297,.T.);
#709=EDGE_CURVE('',#562,#563,#48,.T.);
#710=EDGE_CURVE('',#563,#560,#298,.T.);
#711=EDGE_CURVE('',#564,#562,#299,.T.);
#712=EDGE_CURVE('',#565,#564,#49,.T.);
#713=EDGE_CURVE('',#566,#565,#300,.T.);
#714=EDGE_CURVE('',#567,#566,#301,.T.);
#715=EDGE_CURVE('',#505,#567,#302,.T.);
#716=EDGE_CURVE('',#504,#568,#303,.T.);
#717=EDGE_CURVE('',#569,#568,#304,.T.);
#718=EDGE_CURVE('',#563,#569,#305,.T.);
#719=EDGE_CURVE('',#570,#570,#50,.T.);
#720=EDGE_CURVE('',#561,#571,#306,.T.);
#721=EDGE_CURVE('',#564,#571,#307,.T.);
#722=EDGE_CURVE('',#571,#572,#51,.T.);
#723=EDGE_CURVE('',#572,#565,#308,.T.);
#724=EDGE_CURVE('',#573,#503,#309,.T.);
#725=EDGE_CURVE('',#568,#573,#52,.T.);
#726=EDGE_CURVE('',#558,#574,#310,.T.);
#727=EDGE_CURVE('',#574,#575,#311,.T.);
#728=EDGE_CURVE('',#567,#575,#53,.T.);
#729=EDGE_CURVE('',#576,#566,#312,.T.);
#730=EDGE_CURVE('',#577,#576,#313,.T.);
#731=EDGE_CURVE('',#569,#577,#314,.T.);
#732=EDGE_CURVE('',#573,#475,#315,.T.);
#733=EDGE_CURVE('',#559,#578,#316,.T.);
#734=EDGE_CURVE('',#578,#578,#54,.T.);
#735=EDGE_CURVE('',#574,#555,#317,.T.);
#736=EDGE_CURVE('',#519,#536,#318,.T.);
#737=EDGE_CURVE('',#518,#537,#319,.T.);
#738=EDGE_CURVE('',#517,#538,#320,.T.);
#739=EDGE_CURVE('',#551,#579,#321,.T.);
#740=EDGE_CURVE('',#579,#579,#55,.T.);
#741=EDGE_CURVE('',#543,#530,#322,.T.);
#742=EDGE_CURVE('',#506,#575,#323,.F.);
#743=EDGE_CURVE('',#547,#512,#324,.T.);
#744=EDGE_CURVE('',#550,#532,#325,.T.);
#745=EDGE_CURVE('',#580,#580,#56,.T.);
#746=EDGE_CURVE('',#580,#570,#326,.T.);
#747=EDGE_CURVE('',#572,#576,#327,.T.);
#748=EDGE_CURVE('',#577,#560,#328,.T.);
#749=ORIENTED_EDGE('',*,*,#581,.T.);
#750=ORIENTED_EDGE('',*,*,#582,.T.);
#751=ORIENTED_EDGE('',*,*,#583,.T.);
#752=ORIENTED_EDGE('',*,*,#584,.T.);
#753=ORIENTED_EDGE('',*,*,#583,.F.);
#754=ORIENTED_EDGE('',*,*,#585,.T.);
#755=ORIENTED_EDGE('',*,*,#586,.F.);
#756=ORIENTED_EDGE('',*,*,#587,.T.);
#757=ORIENTED_EDGE('',*,*,#588,.T.);
#758=ORIENTED_EDGE('',*,*,#589,.T.);
#759=ORIENTED_EDGE('',*,*,#590,.T.);
#760=ORIENTED_EDGE('',*,*,#591,.T.);
#761=ORIENTED_EDGE('',*,*,#592,.T.);
#762=ORIENTED_EDGE('',*,*,#593,.F.);
#763=ORIENTED_EDGE('',*,*,#594,.T.);
#764=ORIENTED_EDGE('',*,*,#595,.T.);
#765=ORIENTED_EDGE('',*,*,#582,.F.);
#766=ORIENTED_EDGE('',*,*,#596,.T.);
#767=ORIENTED_EDGE('',*,*,#597,.F.);
#768=ORIENTED_EDGE('',*,*,#585,.F.);
#769=ORIENTED_EDGE('',*,*,#598,.T.);
#770=ORIENTED_EDGE('',*,*,#599,.T.);
#771=ORIENTED_EDGE('',*,*,#600,.T.);
#772=ORIENTED_EDGE('',*,*,#601,.F.);
#773=ORIENTED_EDGE('',*,*,#602,.T.);
#774=ORIENTED_EDGE('',*,*,#603,.F.);
#775=ORIENTED_EDGE('',*,*,#604,.T.);
#776=ORIENTED_EDGE('',*,*,#605,.T.);
#777=ORIENTED_EDGE('',*,*,#606,.T.);
#778=ORIENTED_EDGE('',*,*,#607,.F.);
#779=ORIENTED_EDGE('',*,*,#608,.T.);
#780=ORIENTED_EDGE('',*,*,#609,.F.);
#781=ORIENTED_EDGE('',*,*,#610,.T.);
#782=ORIENTED_EDGE('',*,*,#611,.T.);
#783=ORIENTED_EDGE('',*,*,#586,.T.);
#784=ORIENTED_EDGE('',*,*,#597,.T.);
#785=ORIENTED_EDGE('',*,*,#612,.T.);
#786=ORIENTED_EDGE('',*,*,#613,.T.);
#787=ORIENTED_EDGE('',*,*,#607,.T.);
#788=ORIENTED_EDGE('',*,*,#614,.T.);
#789=ORIENTED_EDGE('',*,*,#613,.F.);
#790=ORIENTED_EDGE('',*,*,#615,.F.);
#791=ORIENTED_EDGE('',*,*,#616,.F.);
#792=ORIENTED_EDGE('',*,*,#608,.F.);
#793=ORIENTED_EDGE('',*,*,#617,.T.);
#794=ORIENTED_EDGE('',*,*,#618,.T.);
#795=ORIENTED_EDGE('',*,*,#603,.T.);
#796=ORIENTED_EDGE('',*,*,#619,.T.);
#797=ORIENTED_EDGE('',*,*,#614,.F.);
#798=ORIENTED_EDGE('',*,*,#606,.F.);
#799=ORIENTED_EDGE('',*,*,#620,.F.);
#800=ORIENTED_EDGE('',*,*,#621,.F.);
#801=ORIENTED_EDGE('',*,*,#589,.F.);
#802=ORIENTED_EDGE('',*,*,#622,.T.);
#803=ORIENTED_EDGE('',*,*,#623,.T.);
#804=ORIENTED_EDGE('',*,*,#624,.T.);
#805=ORIENTED_EDGE('',*,*,#625,.F.);
#806=ORIENTED_EDGE('',*,*,#626,.F.);
#807=ORIENTED_EDGE('',*,*,#627,.T.);
#808=ORIENTED_EDGE('',*,*,#598,.F.);
#809=ORIENTED_EDGE('',*,*,#618,.F.);
#810=ORIENTED_EDGE('',*,*,#628,.F.);
#811=ORIENTED_EDGE('',*,*,#629,.T.);
#812=ORIENTED_EDGE('',*,*,#630,.T.);
#813=ORIENTED_EDGE('',*,*,#601,.T.);
#814=ORIENTED_EDGE('',*,*,#631,.T.);
#815=ORIENTED_EDGE('',*,*,#619,.F.);
#816=ORIENTED_EDGE('',*,*,#602,.F.);
#817=ORIENTED_EDGE('',*,*,#630,.F.);
#818=ORIENTED_EDGE('',*,*,#632,.F.);
#819=ORIENTED_EDGE('',*,*,#633,.T.);
#820=ORIENTED_EDGE('',*,*,#634,.T.);
#821=ORIENTED_EDGE('',*,*,#609,.T.);
#822=ORIENTED_EDGE('',*,*,#616,.T.);
#823=ORIENTED_EDGE('',*,*,#634,.F.);
#824=ORIENTED_EDGE('',*,*,#635,.F.);
#825=ORIENTED_EDGE('',*,*,#636,.T.);
#826=ORIENTED_EDGE('',*,*,#637,.T.);
#827=ORIENTED_EDGE('',*,*,#591,.F.);
#828=ORIENTED_EDGE('',*,*,#638,.T.);
#829=ORIENTED_EDGE('',*,*,#639,.T.);
#830=ORIENTED_EDGE('',*,*,#604,.F.);
#831=ORIENTED_EDGE('',*,*,#631,.F.);
#832=ORIENTED_EDGE('',*,*,#600,.F.);
#833=ORIENTED_EDGE('',*,*,#640,.F.);
#834=ORIENTED_EDGE('',*,*,#641,.F.);
#835=ORIENTED_EDGE('',*,*,#642,.F.);
#836=ORIENTED_EDGE('',*,*,#643,.F.);
#837=ORIENTED_EDGE('',*,*,#599,.F.);
#838=ORIENTED_EDGE('',*,*,#627,.F.);
#839=ORIENTED_EDGE('',*,*,#644,.F.);
#840=ORIENTED_EDGE('',*,*,#645,.F.);
#841=ORIENTED_EDGE('',*,*,#646,.F.);
#842=ORIENTED_EDGE('',*,*,#647,.F.);
#843=ORIENTED_EDGE('',*,*,#648,.F.);
#844=ORIENTED_EDGE('',*,*,#649,.F.);
#845=ORIENTED_EDGE('',*,*,#640,.T.);
#846=ORIENTED_EDGE('',*,*,#605,.F.);
#847=ORIENTED_EDGE('',*,*,#639,.F.);
#848=ORIENTED_EDGE('',*,*,#650,.F.);
#849=ORIENTED_EDGE('',*,*,#620,.T.);
#850=ORIENTED_EDGE('',*,*,#642,.T.);
#851=ORIENTED_EDGE('',*,*,#651,.T.);
#852=ORIENTED_EDGE('',*,*,#652,.F.);
#853=ORIENTED_EDGE('',*,*,#653,.T.);
#854=ORIENTED_EDGE('',*,*,#654,.F.);
#855=ORIENTED_EDGE('',*,*,#655,.T.);
#856=ORIENTED_EDGE('',*,*,#641,.T.);
#857=ORIENTED_EDGE('',*,*,#649,.T.);
#858=ORIENTED_EDGE('',*,*,#656,.F.);
#859=ORIENTED_EDGE('',*,*,#657,.F.);
#860=ORIENTED_EDGE('',*,*,#658,.F.);
#861=ORIENTED_EDGE('',*,*,#659,.T.);
#862=ORIENTED_EDGE('',*,*,#660,.F.);
#863=ORIENTED_EDGE('',*,*,#651,.F.);
#864=ORIENTED_EDGE('',*,*,#661,.T.);
#865=ORIENTED_EDGE('',*,*,#648,.T.);
#866=ORIENTED_EDGE('',*,*,#662,.T.);
#867=ORIENTED_EDGE('',*,*,#663,.T.);
#868=ORIENTED_EDGE('',*,*,#656,.T.);
#869=ORIENTED_EDGE('',*,*,#650,.T.);
#870=ORIENTED_EDGE('',*,*,#638,.F.);
#871=ORIENTED_EDGE('',*,*,#590,.F.);
#872=ORIENTED_EDGE('',*,*,#621,.T.);
#873=ORIENTED_EDGE('',*,*,#632,.T.);
#874=ORIENTED_EDGE('',*,*,#629,.F.);
#875=ORIENTED_EDGE('',*,*,#643,.T.);
#876=ORIENTED_EDGE('',*,*,#655,.F.);
#877=ORIENTED_EDGE('',*,*,#664,.F.);
#878=ORIENTED_EDGE('',*,*,#665,.T.);
#879=ORIENTED_EDGE('',*,*,#635,.T.);
#880=ORIENTED_EDGE('',*,*,#633,.F.);
#881=ORIENTED_EDGE('',*,*,#615,.T.);
#882=ORIENTED_EDGE('',*,*,#612,.F.);
#883=ORIENTED_EDGE('',*,*,#628,.T.);
#884=ORIENTED_EDGE('',*,*,#617,.F.);
#885=ORIENTED_EDGE('',*,*,#666,.T.);
#886=ORIENTED_EDGE('',*,*,#667,.T.);
#887=ORIENTED_EDGE('',*,*,#658,.T.);
#888=ORIENTED_EDGE('',*,*,#668,.T.);
#889=ORIENTED_EDGE('',*,*,#581,.F.);
#890=ORIENTED_EDGE('',*,*,#669,.F.);
#891=ORIENTED_EDGE('',*,*,#670,.T.);
#892=ORIENTED_EDGE('',*,*,#668,.F.);
#893=ORIENTED_EDGE('',*,*,#657,.T.);
#894=ORIENTED_EDGE('',*,*,#663,.F.);
#895=ORIENTED_EDGE('',*,*,#671,.F.);
#896=ORIENTED_EDGE('',*,*,#672,.F.);
#897=ORIENTED_EDGE('',*,*,#673,.F.);
#898=ORIENTED_EDGE('',*,*,#674,.T.);
#899=ORIENTED_EDGE('',*,*,#675,.F.);
#900=ORIENTED_EDGE('',*,*,#676,.T.);
#901=ORIENTED_EDGE('',*,*,#677,.F.);
#902=ORIENTED_EDGE('',*,*,#610,.F.);
#903=ORIENTED_EDGE('',*,*,#596,.F.);
#904=ORIENTED_EDGE('',*,*,#678,.T.);
#905=ORIENTED_EDGE('',*,*,#652,.T.);
#906=ORIENTED_EDGE('',*,*,#660,.T.);
#907=ORIENTED_EDGE('',*,*,#679,.T.);
#908=ORIENTED_EDGE('',*,*,#666,.F.);
#909=ORIENTED_EDGE('',*,*,#670,.F.);
#910=ORIENTED_EDGE('',*,*,#680,.T.);
#911=ORIENTED_EDGE('',*,*,#653,.F.);
#912=ORIENTED_EDGE('',*,*,#678,.F.);
#913=ORIENTED_EDGE('',*,*,#681,.F.);
#914=ORIENTED_EDGE('',*,*,#682,.F.);
#915=ORIENTED_EDGE('',*,*,#683,.T.);
#916=ORIENTED_EDGE('',*,*,#684,.T.);
#917=ORIENTED_EDGE('',*,*,#685,.T.);
#918=ORIENTED_EDGE('',*,*,#686,.T.);
#919=ORIENTED_EDGE('',*,*,#684,.F.);
#920=ORIENTED_EDGE('',*,*,#687,.T.);
#921=ORIENTED_EDGE('',*,*,#688,.F.);
#922=ORIENTED_EDGE('',*,*,#689,.F.);
#923=ORIENTED_EDGE('',*,*,#683,.F.);
#924=ORIENTED_EDGE('',*,*,#690,.F.);
#925=ORIENTED_EDGE('',*,*,#691,.T.);
#926=ORIENTED_EDGE('',*,*,#594,.F.);
#927=ORIENTED_EDGE('',*,*,#692,.F.);
#928=ORIENTED_EDGE('',*,*,#687,.F.);
#929=ORIENTED_EDGE('',*,*,#693,.F.);
#930=ORIENTED_EDGE('',*,*,#692,.T.);
#931=ORIENTED_EDGE('',*,*,#593,.T.);
#932=ORIENTED_EDGE('',*,*,#694,.T.);
#933=ORIENTED_EDGE('',*,*,#688,.T.);
#934=ORIENTED_EDGE('',*,*,#695,.T.);
#935=ORIENTED_EDGE('',*,*,#696,.T.);
#936=ORIENTED_EDGE('',*,*,#697,.T.);
#937=ORIENTED_EDGE('',*,*,#698,.T.);
#938=ORIENTED_EDGE('',*,*,#696,.F.);
#939=ORIENTED_EDGE('',*,*,#699,.T.);
#940=ORIENTED_EDGE('',*,*,#700,.F.);
#941=ORIENTED_EDGE('',*,*,#701,.T.);
#942=ORIENTED_EDGE('',*,*,#695,.F.);
#943=ORIENTED_EDGE('',*,*,#702,.F.);
#944=ORIENTED_EDGE('',*,*,#703,.F.);
#945=ORIENTED_EDGE('',*,*,#676,.F.);
#946=ORIENTED_EDGE('',*,*,#704,.F.);
#947=ORIENTED_EDGE('',*,*,#699,.F.);
#948=ORIENTED_EDGE('',*,*,#705,.F.);
#949=ORIENTED_EDGE('',*,*,#704,.T.);
#950=ORIENTED_EDGE('',*,*,#675,.T.);
#951=ORIENTED_EDGE('',*,*,#706,.T.);
#952=ORIENTED_EDGE('',*,*,#700,.T.);
#953=ORIENTED_EDGE('',*,*,#707,.T.);
#954=ORIENTED_EDGE('',*,*,#708,.T.);
#955=ORIENTED_EDGE('',*,*,#709,.T.);
#956=ORIENTED_EDGE('',*,*,#710,.T.);
#957=ORIENTED_EDGE('',*,*,#709,.F.);
#958=ORIENTED_EDGE('',*,*,#711,.F.);
#959=ORIENTED_EDGE('',*,*,#712,.F.);
#960=ORIENTED_EDGE('',*,*,#713,.F.);
#961=ORIENTED_EDGE('',*,*,#714,.F.);
#962=ORIENTED_EDGE('',*,*,#715,.F.);
#963=ORIENTED_EDGE('',*,*,#624,.F.);
#964=ORIENTED_EDGE('',*,*,#716,.T.);
#965=ORIENTED_EDGE('',*,*,#717,.F.);
#966=ORIENTED_EDGE('',*,*,#718,.F.);
#967=ORIENTED_EDGE('',*,*,#719,.T.);
#968=ORIENTED_EDGE('',*,*,#708,.F.);
#969=ORIENTED_EDGE('',*,*,#720,.T.);
#970=ORIENTED_EDGE('',*,*,#721,.F.);
#971=ORIENTED_EDGE('',*,*,#711,.T.);
#972=ORIENTED_EDGE('',*,*,#722,.T.);
#973=ORIENTED_EDGE('',*,*,#723,.T.);
#974=ORIENTED_EDGE('',*,*,#712,.T.);
#975=ORIENTED_EDGE('',*,*,#721,.T.);
#976=ORIENTED_EDGE('',*,*,#623,.F.);
#977=ORIENTED_EDGE('',*,*,#724,.F.);
#978=ORIENTED_EDGE('',*,*,#725,.F.);
#979=ORIENTED_EDGE('',*,*,#716,.F.);
#980=ORIENTED_EDGE('',*,*,#611,.F.);
#981=ORIENTED_EDGE('',*,*,#677,.T.);
#982=ORIENTED_EDGE('',*,*,#703,.T.);
#983=ORIENTED_EDGE('',*,*,#726,.T.);
#984=ORIENTED_EDGE('',*,*,#727,.T.);
#985=ORIENTED_EDGE('',*,*,#728,.F.);
#986=ORIENTED_EDGE('',*,*,#714,.T.);
#987=ORIENTED_EDGE('',*,*,#729,.F.);
#988=ORIENTED_EDGE('',*,*,#730,.F.);
#989=ORIENTED_EDGE('',*,*,#731,.F.);
#990=ORIENTED_EDGE('',*,*,#717,.T.);
#991=ORIENTED_EDGE('',*,*,#725,.T.);
#992=ORIENTED_EDGE('',*,*,#732,.T.);
#993=ORIENTED_EDGE('',*,*,#587,.F.);
#994=ORIENTED_EDGE('',*,*,#724,.T.);
#995=ORIENTED_EDGE('',*,*,#622,.F.);
#996=ORIENTED_EDGE('',*,*,#588,.F.);
#997=ORIENTED_EDGE('',*,*,#732,.F.);
#998=ORIENTED_EDGE('',*,*,#705,.T.);
#999=ORIENTED_EDGE('',*,*,#733,.T.);
#1000=ORIENTED_EDGE('',*,*,#734,.F.);
#1001=ORIENTED_EDGE('',*,*,#733,.F.);
#1002=ORIENTED_EDGE('',*,*,#698,.F.);
#1003=ORIENTED_EDGE('',*,*,#735,.F.);
#1004=ORIENTED_EDGE('',*,*,#726,.F.);
#1005=ORIENTED_EDGE('',*,*,#702,.T.);
#1006=ORIENTED_EDGE('',*,*,#647,.T.);
#1007=ORIENTED_EDGE('',*,*,#736,.T.);
#1008=ORIENTED_EDGE('',*,*,#671,.T.);
#1009=ORIENTED_EDGE('',*,*,#662,.F.);
#1010=ORIENTED_EDGE('',*,*,#646,.T.);
#1011=ORIENTED_EDGE('',*,*,#737,.T.);
#1012=ORIENTED_EDGE('',*,*,#672,.T.);
#1013=ORIENTED_EDGE('',*,*,#736,.F.);
#1014=ORIENTED_EDGE('',*,*,#645,.T.);
#1015=ORIENTED_EDGE('',*,*,#738,.T.);
#1016=ORIENTED_EDGE('',*,*,#673,.T.);
#1017=ORIENTED_EDGE('',*,*,#737,.F.);
#1018=ORIENTED_EDGE('',*,*,#693,.T.);
#1019=ORIENTED_EDGE('',*,*,#739,.T.);
#1020=ORIENTED_EDGE('',*,*,#740,.F.);
#1021=ORIENTED_EDGE('',*,*,#739,.F.);
#1022=ORIENTED_EDGE('',*,*,#667,.F.);
#1023=ORIENTED_EDGE('',*,*,#681,.T.);
#1024=ORIENTED_EDGE('',*,*,#679,.F.);
#1025=ORIENTED_EDGE('',*,*,#659,.F.);
#1026=ORIENTED_EDGE('',*,*,#682,.T.);
#1027=ORIENTED_EDGE('',*,*,#741,.T.);
#1028=ORIENTED_EDGE('',*,*,#661,.F.);
#1029=ORIENTED_EDGE('',*,*,#741,.F.);
#1030=ORIENTED_EDGE('',*,*,#626,.T.);
#1031=ORIENTED_EDGE('',*,*,#742,.T.);
#1032=ORIENTED_EDGE('',*,*,#727,.F.);
#1033=ORIENTED_EDGE('',*,*,#735,.T.);
#1034=ORIENTED_EDGE('',*,*,#697,.F.);
#1035=ORIENTED_EDGE('',*,*,#701,.F.);
#1036=ORIENTED_EDGE('',*,*,#706,.F.);
#1037=ORIENTED_EDGE('',*,*,#674,.F.);
#1038=ORIENTED_EDGE('',*,*,#738,.F.);
#1039=ORIENTED_EDGE('',*,*,#644,.T.);
#1040=ORIENTED_EDGE('',*,*,#734,.T.);
#1041=ORIENTED_EDGE('',*,*,#728,.T.);
#1042=ORIENTED_EDGE('',*,*,#742,.F.);
#1043=ORIENTED_EDGE('',*,*,#625,.T.);
#1044=ORIENTED_EDGE('',*,*,#715,.T.);
#1045=ORIENTED_EDGE('',*,*,#685,.F.);
#1046=ORIENTED_EDGE('',*,*,#689,.T.);
#1047=ORIENTED_EDGE('',*,*,#694,.F.);
#1048=ORIENTED_EDGE('',*,*,#592,.F.);
#1049=ORIENTED_EDGE('',*,*,#637,.F.);
#1050=ORIENTED_EDGE('',*,*,#743,.F.);
#1051=ORIENTED_EDGE('',*,*,#740,.T.);
#1052=ORIENTED_EDGE('',*,*,#584,.F.);
#1053=ORIENTED_EDGE('',*,*,#595,.F.);
#1054=ORIENTED_EDGE('',*,*,#691,.F.);
#1055=ORIENTED_EDGE('',*,*,#744,.T.);
#1056=ORIENTED_EDGE('',*,*,#664,.T.);
#1057=ORIENTED_EDGE('',*,*,#654,.T.);
#1058=ORIENTED_EDGE('',*,*,#680,.F.);
#1059=ORIENTED_EDGE('',*,*,#669,.T.);
#1060=ORIENTED_EDGE('',*,*,#686,.F.);
#1061=ORIENTED_EDGE('',*,*,#743,.T.);
#1062=ORIENTED_EDGE('',*,*,#636,.F.);
#1063=ORIENTED_EDGE('',*,*,#665,.F.);
#1064=ORIENTED_EDGE('',*,*,#744,.F.);
#1065=ORIENTED_EDGE('',*,*,#690,.T.);
#1066=ORIENTED_EDGE('',*,*,#745,.T.);
#1067=ORIENTED_EDGE('',*,*,#746,.T.);
#1068=ORIENTED_EDGE('',*,*,#719,.F.);
#1069=ORIENTED_EDGE('',*,*,#746,.F.);
#1070=ORIENTED_EDGE('',*,*,#723,.F.);
#1071=ORIENTED_EDGE('',*,*,#747,.T.);
#1072=ORIENTED_EDGE('',*,*,#729,.T.);
#1073=ORIENTED_EDGE('',*,*,#713,.T.);
#1074=ORIENTED_EDGE('',*,*,#707,.F.);
#1075=ORIENTED_EDGE('',*,*,#748,.F.);
#1076=ORIENTED_EDGE('',*,*,#730,.T.);
#1077=ORIENTED_EDGE('',*,*,#747,.F.);
#1078=ORIENTED_EDGE('',*,*,#722,.F.);
#1079=ORIENTED_EDGE('',*,*,#720,.F.);
#1080=ORIENTED_EDGE('',*,*,#745,.F.);
#1081=ORIENTED_EDGE('',*,*,#710,.F.);
#1082=ORIENTED_EDGE('',*,*,#718,.T.);
#1083=ORIENTED_EDGE('',*,*,#731,.T.);
#1084=ORIENTED_EDGE('',*,*,#748,.T.);
#1085=PLANE('',#1185);
#1086=PLANE('',#1186);
#1087=PLANE('',#1187);
#1088=PLANE('',#1188);
#1089=PLANE('',#1189);
#1090=PLANE('',#1190);
#1091=PLANE('',#1191);
#1092=PLANE('',#1192);
#1093=PLANE('',#1195);
#1094=PLANE('',#1196);
#1095=PLANE('',#1197);
#1096=PLANE('',#1198);
#1097=PLANE('',#1199);
#1098=PLANE('',#1200);
#1099=PLANE('',#1201);
#1100=PLANE('',#1202);
#1101=PLANE('',#1203);
#1102=PLANE('',#1207);
#1103=PLANE('',#1208);
#1104=PLANE('',#1209);
#1105=PLANE('',#1212);
#1106=PLANE('',#1215);
#1107=PLANE('',#1220);
#1108=PLANE('',#1221);
#1109=PLANE('',#1229);
#1110=PLANE('',#1230);
#1111=PLANE('',#1238);
#1112=PLANE('',#1241);
#1113=PLANE('',#1246);
#1114=PLANE('',#1248);
#1115=PLANE('',#1251);
#1116=PLANE('',#1252);
#1117=PLANE('',#1253);
#1118=PLANE('',#1254);
#1119=PLANE('',#1257);
#1120=PLANE('',#1259);
#1121=PLANE('',#1261);
#1122=PLANE('',#1262);
#1123=PLANE('',#1263);
#1124=PLANE('',#1266);
#1125=PLANE('',#1267);
#1126=PLANE('',#1268);
#1127=ADVANCED_FACE('',(#67),#1085,.T.);
#1128=ADVANCED_FACE('',(#68),#1086,.F.);
#1129=ADVANCED_FACE('',(#69,#57,#58),#1087,.F.);
#1130=ADVANCED_FACE('',(#70),#1088,.T.);
#1131=ADVANCED_FACE('',(#71),#1089,.T.);
#1132=ADVANCED_FACE('',(#72),#1090,.F.);
#1133=ADVANCED_FACE('',(#73),#1091,.T.);
#1134=ADVANCED_FACE('',(#74),#1092,.F.);
#1135=ADVANCED_FACE('',(#75),#1093,.T.);
#1136=ADVANCED_FACE('',(#76),#1094,.F.);
#1137=ADVANCED_FACE('',(#77),#1095,.T.);
#1138=ADVANCED_FACE('',(#78),#1096,.F.);
#1139=ADVANCED_FACE('',(#79),#1097,.F.);
#1140=ADVANCED_FACE('',(#80),#1098,.F.);
#1141=ADVANCED_FACE('',(#81),#1099,.F.);
#1142=ADVANCED_FACE('',(#82),#1100,.F.);
#1143=ADVANCED_FACE('',(#83,#59),#1101,.F.);
#1144=ADVANCED_FACE('',(#84),#1102,.F.);
#1145=ADVANCED_FACE('',(#85),#1103,.F.);
#1146=ADVANCED_FACE('',(#86),#1104,.F.);
#1147=ADVANCED_FACE('',(#87),#15,.T.);
#1148=ADVANCED_FACE('',(#88),#1105,.F.);
#1149=ADVANCED_FACE('',(#89),#16,.T.);
#1150=ADVANCED_FACE('',(#90,#60),#1106,.T.);
#1151=ADVANCED_FACE('',(#91),#17,.T.);
#1152=ADVANCED_FACE('',(#92),#1107,.F.);
#1153=ADVANCED_FACE('',(#93,#61),#1108,.T.);
#1154=ADVANCED_FACE('',(#94),#18,.T.);
#1155=ADVANCED_FACE('',(#95),#19,.T.);
#1156=ADVANCED_FACE('',(#96),#1109,.F.);
#1157=ADVANCED_FACE('',(#97,#62),#1110,.T.);
#1158=ADVANCED_FACE('',(#98),#20,.T.);
#1159=ADVANCED_FACE('',(#99),#21,.T.);
#1160=ADVANCED_FACE('',(#100,#63),#1111,.F.);
#1161=ADVANCED_FACE('',(#101),#1112,.F.);
#1162=ADVANCED_FACE('',(#102),#22,.T.);
#1163=ADVANCED_FACE('',(#103),#23,.F.);
#1164=ADVANCED_FACE('',(#104),#1113,.F.);
#1165=ADVANCED_FACE('',(#105),#1114,.F.);
#1166=ADVANCED_FACE('',(#106),#24,.F.);
#1167=ADVANCED_FACE('',(#107),#1115,.F.);
#1168=ADVANCED_FACE('',(#108),#1116,.F.);
#1169=ADVANCED_FACE('',(#109),#1117,.F.);
#1170=ADVANCED_FACE('',(#110),#1118,.F.);
#1171=ADVANCED_FACE('',(#111),#25,.F.);
#1172=ADVANCED_FACE('',(#112),#1119,.F.);
#1173=ADVANCED_FACE('',(#113),#26,.F.);
#1174=ADVANCED_FACE('',(#114,#64),#1120,.F.);
#1175=ADVANCED_FACE('',(#115),#27,.F.);
#1176=ADVANCED_FACE('',(#116,#65),#1121,.F.);
#1177=ADVANCED_FACE('',(#117),#1122,.F.);
#1178=ADVANCED_FACE('',(#118),#1123,.F.);
#1179=ADVANCED_FACE('',(#119),#28,.F.);
#1180=ADVANCED_FACE('',(#120),#1124,.F.);
#1181=ADVANCED_FACE('',(#121,#66),#1125,.T.);
#1182=ADVANCED_FACE('',(#122),#1126,.F.);
#1183=CLOSED_SHELL('',(#1127,#1128,#1129,#1130,#1131,#1132,#1133,#1134,
#1135,#1136,#1137,#1138,#1139,#1140,#1141,#1142,#1143,#1144,#1145,#1146,
#1147,#1148,#1149,#1150,#1151,#1152,#1153,#1154,#1155,#1156,#1157,#1158,
#1159,#1160,#1161,#1162,#1163,#1164,#1165,#1166,#1167,#1168,#1169,#1170,
#1171,#1172,#1173,#1174,#1175,#1176,#1177,#1178,#1179,#1180,#1181,#1182));
#1184=AXIS2_PLACEMENT_3D('',#1579,#1269,#1270);
#1185=AXIS2_PLACEMENT_3D('',#1580,#1271,#1272);
#1186=AXIS2_PLACEMENT_3D('',#1589,#1277,#1278);
#1187=AXIS2_PLACEMENT_3D('',#1611,#1290,#1291);
#1188=AXIS2_PLACEMENT_3D('',#1639,#1306,#1307);
#1189=AXIS2_PLACEMENT_3D('',#1643,#1310,#1311);
#1190=AXIS2_PLACEMENT_3D('',#1649,#1315,#1316);
#1191=AXIS2_PLACEMENT_3D('',#1653,#1319,#1320);
#1192=AXIS2_PLACEMENT_3D('',#1659,#1324,#1325);
#1193=AXIS2_PLACEMENT_3D('',#1666,#1329,#1330);
#1194=AXIS2_PLACEMENT_3D('',#1670,#1332,#1333);
#1195=AXIS2_PLACEMENT_3D('',#1675,#1337,#1338);
#1196=AXIS2_PLACEMENT_3D('',#1681,#1342,#1343);
#1197=AXIS2_PLACEMENT_3D('',#1683,#1345,#1346);
#1198=AXIS2_PLACEMENT_3D('',#1687,#1349,#1350);
#1199=AXIS2_PLACEMENT_3D('',#1696,#1356,#1357);
#1200=AXIS2_PLACEMENT_3D('',#1704,#1362,#1363);
#1201=AXIS2_PLACEMENT_3D('',#1716,#1370,#1371);
#1202=AXIS2_PLACEMENT_3D('',#1718,#1373,#1374);
#1203=AXIS2_PLACEMENT_3D('',#1728,#1380,#1381);
#1204=AXIS2_PLACEMENT_3D('',#1734,#1384,#1385);
#1205=AXIS2_PLACEMENT_3D('',#1737,#1387,#1388);
#1206=AXIS2_PLACEMENT_3D('',#1739,#1389,#1390);
#1207=AXIS2_PLACEMENT_3D('',#1740,#1391,#1392);
#1208=AXIS2_PLACEMENT_3D('',#1744,#1395,#1396);
#1209=AXIS2_PLACEMENT_3D('',#1745,#1397,#1398);
#1210=AXIS2_PLACEMENT_3D('',#1749,#1401,#1402);
#1211=AXIS2_PLACEMENT_3D('',#1752,#1403,#1404);
#1212=AXIS2_PLACEMENT_3D('',#1755,#1407,#1408);
#1213=AXIS2_PLACEMENT_3D('',#1772,#1418,#1419);
#1214=AXIS2_PLACEMENT_3D('',#1774,#1420,#1421);
#1215=AXIS2_PLACEMENT_3D('',#1776,#1423,#1424);
#1216=AXIS2_PLACEMENT_3D('',#1780,#1427,#1428);
#1217=AXIS2_PLACEMENT_3D('',#1781,#1429,#1430);
#1218=AXIS2_PLACEMENT_3D('',#1784,#1431,#1432);
#1219=AXIS2_PLACEMENT_3D('',#1788,#1434,#1435);
#1220=AXIS2_PLACEMENT_3D('',#1790,#1437,#1438);
#1221=AXIS2_PLACEMENT_3D('',#1796,#1442,#1443);
#1222=AXIS2_PLACEMENT_3D('',#1800,#1446,#1447);
#1223=AXIS2_PLACEMENT_3D('',#1802,#1448,#1449);
#1224=AXIS2_PLACEMENT_3D('',#1803,#1450,#1451);
#1225=AXIS2_PLACEMENT_3D('',#1804,#1452,#1453);
#1226=AXIS2_PLACEMENT_3D('',#1805,#1454,#1455);
#1227=AXIS2_PLACEMENT_3D('',#1808,#1456,#1457);
#1228=AXIS2_PLACEMENT_3D('',#1812,#1459,#1460);
#1229=AXIS2_PLACEMENT_3D('',#1814,#1462,#1463);
#1230=AXIS2_PLACEMENT_3D('',#1820,#1467,#1468);
#1231=AXIS2_PLACEMENT_3D('',#1824,#1471,#1472);
#1232=AXIS2_PLACEMENT_3D('',#1826,#1473,#1474);
#1233=AXIS2_PLACEMENT_3D('',#1827,#1475,#1476);
#1234=AXIS2_PLACEMENT_3D('',#1828,#1477,#1478);
#1235=AXIS2_PLACEMENT_3D('',#1829,#1479,#1480);
#1236=AXIS2_PLACEMENT_3D('',#1832,#1481,#1482);
#1237=AXIS2_PLACEMENT_3D('',#1836,#1484,#1485);
#1238=AXIS2_PLACEMENT_3D('',#1838,#1487,#1488);
#1239=AXIS2_PLACEMENT_3D('',#1842,#1490,#1491);
#1240=AXIS2_PLACEMENT_3D('',#1854,#1498,#1499);
#1241=AXIS2_PLACEMENT_3D('',#1855,#1500,#1501);
#1242=AXIS2_PLACEMENT_3D('',#1859,#1504,#1505);
#1243=AXIS2_PLACEMENT_3D('',#1861,#1506,#1507);
#1244=AXIS2_PLACEMENT_3D('',#1863,#1509,#1510);
#1245=AXIS2_PLACEMENT_3D('',#1866,#1512,#1513);
#1246=AXIS2_PLACEMENT_3D('',#1867,#1514,#1515);
#1247=AXIS2_PLACEMENT_3D('',#1872,#1518,#1519);
#1248=AXIS2_PLACEMENT_3D('',#1879,#1524,#1525);
#1249=AXIS2_PLACEMENT_3D('',#1880,#1526,#1527);
#1250=AXIS2_PLACEMENT_3D('',#1883,#1529,#1530);
#1251=AXIS2_PLACEMENT_3D('',#1884,#1531,#1532);
#1252=AXIS2_PLACEMENT_3D('',#1886,#1534,#1535);
#1253=AXIS2_PLACEMENT_3D('',#1888,#1537,#1538);
#1254=AXIS2_PLACEMENT_3D('',#1890,#1540,#1541);
#1255=AXIS2_PLACEMENT_3D('',#1892,#1543,#1544);
#1256=AXIS2_PLACEMENT_3D('',#1895,#1546,#1547);
#1257=AXIS2_PLACEMENT_3D('',#1896,#1548,#1549);
#1258=AXIS2_PLACEMENT_3D('',#1897,#1550,#1551);
#1259=AXIS2_PLACEMENT_3D('',#1899,#1553,#1554);
#1260=AXIS2_PLACEMENT_3D('',#1901,#1556,#1557);
#1261=AXIS2_PLACEMENT_3D('',#1902,#1558,#1559);
#1262=AXIS2_PLACEMENT_3D('',#1904,#1561,#1562);
#1263=AXIS2_PLACEMENT_3D('',#1906,#1564,#1565);
#1264=AXIS2_PLACEMENT_3D('',#1907,#1566,#1567);
#1265=AXIS2_PLACEMENT_3D('',#1909,#1568,#1569);
#1266=AXIS2_PLACEMENT_3D('',#1911,#1571,#1572);
#1267=AXIS2_PLACEMENT_3D('',#1913,#1574,#1575);
#1268=AXIS2_PLACEMENT_3D('',#1915,#1577,#1578);
#1269=DIRECTION('axis',(0.,0.,1.));
#1270=DIRECTION('refdir',(1.,0.,0.));
#1271=DIRECTION('center_axis',(0.,-0.707106781186548,-0.707106781186548));
#1272=DIRECTION('ref_axis',(-1.,0.,0.));
#1273=DIRECTION('',(0.,0.707106781186548,-0.707106781186548));
#1274=DIRECTION('',(1.,0.,0.));
#1275=DIRECTION('',(0.,-0.707106781186548,0.707106781186548));
#1276=DIRECTION('',(-1.,0.,0.));
#1277=DIRECTION('center_axis',(-1.,0.,0.));
#1278=DIRECTION('ref_axis',(0.,0.,1.));
#1279=DIRECTION('',(0.,1.,-1.18740430441193E-16));
#1280=DIRECTION('',(0.,-0.707106781186548,-0.707106781186548));
#1281=DIRECTION('',(0.,0.,1.));
#1282=DIRECTION('',(0.,-1.,0.));
#1283=DIRECTION('',(0.,-1.74838271594513E-16,-1.));
#1284=DIRECTION('',(2.7974123455122E-15,-1.,0.));
#1285=DIRECTION('',(-1.3987061727561E-15,3.49676543189026E-16,1.));
#1286=DIRECTION('',(0.,-1.,0.));
#1287=DIRECTION('',(0.,0.,1.));
#1288=DIRECTION('',(0.,1.,0.));
#1289=DIRECTION('',(0.,0.,-1.));
#1290=DIRECTION('center_axis',(0.,1.18740430441193E-16,1.));
#1291=DIRECTION('ref_axis',(0.,1.,-1.18740430441193E-16));
#1292=DIRECTION('',(0.,1.,-1.18740430441193E-16));
#1293=DIRECTION('',(-1.,0.,0.));
#1294=DIRECTION('',(-1.,0.,0.));
#1295=DIRECTION('',(0.,-1.,1.18740430441193E-16));
#1296=DIRECTION('',(1.,0.,0.));
#1297=DIRECTION('',(-0.707106781186549,-0.707106781186546,8.39621635659771E-17));
#1298=DIRECTION('',(0.,1.,-1.18740430441193E-16));
#1299=DIRECTION('',(0.707106781186549,-0.707106781186547,8.39621635659772E-17));
#1300=DIRECTION('',(1.,0.,0.));
#1301=DIRECTION('',(0.,1.,-1.18740430441193E-16));
#1302=DIRECTION('',(-1.,0.,0.));
#1303=DIRECTION('',(0.707106781186549,0.707106781186546,-8.39621635659771E-17));
#1304=DIRECTION('',(0.,-1.,1.18740430441193E-16));
#1305=DIRECTION('',(-0.707106781186546,0.70710678118655,-8.39621635659776E-17));
#1306=DIRECTION('center_axis',(0.,0.707106781186548,-0.707106781186548));
#1307=DIRECTION('ref_axis',(-1.,0.,0.));
#1308=DIRECTION('',(0.,0.707106781186548,0.707106781186548));
#1309=DIRECTION('',(1.,0.,0.));
#1310=DIRECTION('center_axis',(0.707106781186546,-0.707106781186549,1.23629327455416E-16));
#1311=DIRECTION('ref_axis',(1.74838271594514E-16,0.,-1.));
#1312=DIRECTION('',(-0.707106781186549,-0.707106781186546,0.));
#1313=DIRECTION('',(0.,-1.74838271594513E-16,-1.));
#1314=DIRECTION('',(0.,1.74838271594513E-16,1.));
#1315=DIRECTION('center_axis',(-1.,0.,0.));
#1316=DIRECTION('ref_axis',(0.,1.,0.));
#1317=DIRECTION('',(0.,1.,0.));
#1318=DIRECTION('',(0.,3.49676543189026E-16,1.));
#1319=DIRECTION('center_axis',(-0.707106781186547,-0.707106781186549,1.23629327455416E-16));
#1320=DIRECTION('ref_axis',(1.74838271594514E-16,0.,1.));
#1321=DIRECTION('',(-0.707106781186549,0.707106781186547,0.));
#1322=DIRECTION('',(0.,-1.74838271594513E-16,-1.));
#1323=DIRECTION('',(0.,1.74838271594513E-16,1.));
#1324=DIRECTION('center_axis',(0.,1.,-1.74838271594513E-16));
#1325=DIRECTION('ref_axis',(0.,-1.74838271594513E-16,-1.));
#1326=DIRECTION('',(0.,0.,-1.));
#1327=DIRECTION('',(-1.,0.,0.));
#1328=DIRECTION('',(-1.,0.,0.));
#1329=DIRECTION('center_axis',(0.,1.,-1.74838271594513E-16));
#1330=DIRECTION('ref_axis',(-1.,0.,2.07429647145944E-36));
#1331=DIRECTION('',(-1.,0.,0.));
#1332=DIRECTION('center_axis',(0.,-1.,1.74838271594513E-16));
#1333=DIRECTION('ref_axis',(0.965884579558976,0.,-0.258972930960323));
#1334=DIRECTION('',(1.,0.,0.));
#1335=DIRECTION('',(0.,0.,-1.));
#1336=DIRECTION('',(-1.,0.,0.));
#1337=DIRECTION('center_axis',(-0.707106781186546,0.707106781186549,0.));
#1338=DIRECTION('ref_axis',(0.,0.,1.));
#1339=DIRECTION('',(0.707106781186549,0.707106781186546,0.));
#1340=DIRECTION('',(0.,0.,-1.));
#1341=DIRECTION('',(0.,0.,1.));
#1342=DIRECTION('center_axis',(1.,0.,0.));
#1343=DIRECTION('ref_axis',(0.,-1.,-2.37126584682591E-16));
#1344=DIRECTION('',(0.,-1.,0.));
#1345=DIRECTION('center_axis',(0.70710678118655,0.707106781186546,-2.4725865491083E-16));
#1346=DIRECTION('ref_axis',(-3.49676543189024E-16,0.,-1.));
#1347=DIRECTION('',(0.707106781186546,-0.70710678118655,0.));
#1348=DIRECTION('',(0.,-3.49676543189026E-16,-1.));
#1349=DIRECTION('center_axis',(0.,-1.,3.49676543189026E-16));
#1350=DIRECTION('ref_axis',(-1.3987061727561E-15,3.49676543189026E-16,1.));
#1351=DIRECTION('',(-1.,0.,0.));
#1352=DIRECTION('',(0.,3.49676543189026E-16,1.));
#1353=DIRECTION('',(1.,0.,0.));
#1354=DIRECTION('',(-1.,0.,0.));
#1355=DIRECTION('',(0.,0.,-1.));
#1356=DIRECTION('center_axis',(0.,-1.,0.));
#1357=DIRECTION('ref_axis',(-1.,0.,0.));
#1358=DIRECTION('',(0.,0.,-1.));
#1359=DIRECTION('',(-1.,0.,0.));
#1360=DIRECTION('',(0.,0.,1.));
#1361=DIRECTION('',(-1.,0.,0.));
#1362=DIRECTION('center_axis',(-1.,0.,0.));
#1363=DIRECTION('ref_axis',(0.,1.,4.74253169365182E-16));
#1364=DIRECTION('',(0.,1.,0.));
#1365=DIRECTION('',(0.,-6.93889390390714E-17,1.));
#1366=DIRECTION('',(0.,0.866025403784439,0.5));
#1367=DIRECTION('',(0.,0.866025403784439,-0.5));
#1368=DIRECTION('',(0.,4.02455846426618E-16,-1.));
#1369=DIRECTION('',(0.,1.,0.));
#1370=DIRECTION('center_axis',(1.,0.,0.));
#1371=DIRECTION('ref_axis',(0.,-1.,0.));
#1372=DIRECTION('',(0.,-1.,0.));
#1373=DIRECTION('center_axis',(-1.,0.,0.));
#1374=DIRECTION('ref_axis',(0.,1.,0.));
#1375=DIRECTION('',(0.,-1.,0.));
#1376=DIRECTION('',(0.,0.,1.));
#1377=DIRECTION('',(0.,1.,0.));
#1378=DIRECTION('',(0.,0.,1.));
#1379=DIRECTION('',(2.61952530928106E-16,1.,0.));
#1380=DIRECTION('center_axis',(0.,0.,-1.));
#1381=DIRECTION('ref_axis',(-1.,0.,0.));
#1382=DIRECTION('',(1.,-3.15544388309376E-30,0.));
#1383=DIRECTION('',(0.,1.,0.));
#1384=DIRECTION('center_axis',(0.,0.,-1.));
#1385=DIRECTION('ref_axis',(-0.707106781186548,-0.707106781186548,0.));
#1386=DIRECTION('',(1.,0.,0.));
#1387=DIRECTION('center_axis',(0.,0.,-1.));
#1388=DIRECTION('ref_axis',(0.707106781186548,-0.707106781186548,0.));
#1389=DIRECTION('center_axis',(0.,0.,-1.));
#1390=DIRECTION('ref_axis',(-1.,0.,0.));
#1391=DIRECTION('center_axis',(-3.15544388309376E-30,-1.,-4.02455846426618E-16));
#1392=DIRECTION('ref_axis',(-3.2875787295304E-30,-4.02455846426618E-16,
1.));
#1393=DIRECTION('',(-1.,3.15544388309376E-30,-3.2875787295304E-30));
#1394=DIRECTION('',(0.,-4.02455846426618E-16,1.));
#1395=DIRECTION('center_axis',(0.,0.,-1.));
#1396=DIRECTION('ref_axis',(2.7974123455122E-15,-1.,0.));
#1397=DIRECTION('center_axis',(0.,0.,-1.));
#1398=DIRECTION('ref_axis',(2.7974123455122E-15,-1.,0.));
#1399=DIRECTION('',(-1.,0.,0.));
#1400=DIRECTION('',(0.,1.,0.));
#1401=DIRECTION('center_axis',(0.,0.,-1.));
#1402=DIRECTION('ref_axis',(-0.707106781186548,-0.707106781186548,0.));
#1403=DIRECTION('center_axis',(0.,0.,1.));
#1404=DIRECTION('ref_axis',(-0.707106781186548,-0.707106781186548,0.));
#1405=DIRECTION('',(0.,0.,1.));
#1406=DIRECTION('',(0.,0.,-1.));
#1407=DIRECTION('center_axis',(1.,0.,0.));
#1408=DIRECTION('ref_axis',(0.,0.,-1.));
#1409=DIRECTION('',(0.,0.,-1.));
#1410=DIRECTION('',(0.,-1.,0.));
#1411=DIRECTION('',(0.,-0.866025403784439,0.5));
#1412=DIRECTION('',(0.,-0.866025403784439,-0.5));
#1413=DIRECTION('',(0.,6.93889390390714E-17,-1.));
#1414=DIRECTION('',(0.,1.,0.));
#1415=DIRECTION('',(0.,0.,1.));
#1416=DIRECTION('',(0.,-1.,0.));
#1417=DIRECTION('',(0.,0.,1.));
#1418=DIRECTION('center_axis',(0.,0.,-1.));
#1419=DIRECTION('ref_axis',(0.707106781186548,-0.707106781186548,0.));
#1420=DIRECTION('center_axis',(0.,0.,1.));
#1421=DIRECTION('ref_axis',(0.707106781186548,-0.707106781186548,0.));
#1422=DIRECTION('',(0.,0.,-1.));
#1423=DIRECTION('center_axis',(0.,0.,-1.));
#1424=DIRECTION('ref_axis',(-1.,0.,0.));
#1425=DIRECTION('',(1.,0.,0.));
#1426=DIRECTION('',(1.,0.,0.));
#1427=DIRECTION('center_axis',(0.,0.,-1.));
#1428=DIRECTION('ref_axis',(-1.,0.,0.));
#1429=DIRECTION('center_axis',(0.,0.,-1.));
#1430=DIRECTION('ref_axis',(-0.707106781186548,-0.707106781186548,0.));
#1431=DIRECTION('center_axis',(0.,0.,1.));
#1432=DIRECTION('ref_axis',(-0.707106781186548,-0.707106781186548,0.));
#1433=DIRECTION('',(0.,0.,1.));
#1434=DIRECTION('center_axis',(0.,0.,-1.));
#1435=DIRECTION('ref_axis',(-0.707106781186548,-0.707106781186548,0.));
#1436=DIRECTION('',(0.,0.,-1.));
#1437=DIRECTION('center_axis',(0.,1.,0.));
#1438=DIRECTION('ref_axis',(1.,0.,0.));
#1439=DIRECTION('',(1.,0.,0.));
#1440=DIRECTION('',(0.,0.,-1.));
#1441=DIRECTION('',(1.,0.,0.));
#1442=DIRECTION('center_axis',(0.,0.,-1.));
#1443=DIRECTION('ref_axis',(-1.,0.,0.));
#1444=DIRECTION('',(0.,-1.,0.));
#1445=DIRECTION('',(1.,0.,0.));
#1446=DIRECTION('center_axis',(0.,0.,1.));
#1447=DIRECTION('ref_axis',(0.707106781186549,-0.707106781186546,0.));
#1448=DIRECTION('center_axis',(0.,0.,-1.));
#1449=DIRECTION('ref_axis',(-1.,0.,0.));
#1450=DIRECTION('center_axis',(0.,0.,-1.));
#1451=DIRECTION('ref_axis',(0.707106781186549,-0.707106781186546,0.));
#1452=DIRECTION('center_axis',(0.,0.,-1.));
#1453=DIRECTION('ref_axis',(0.707106781186549,-0.707106781186546,0.));
#1454=DIRECTION('center_axis',(0.,0.,-1.));
#1455=DIRECTION('ref_axis',(0.707106781186548,0.707106781186547,0.));
#1456=DIRECTION('center_axis',(0.,0.,1.));
#1457=DIRECTION('ref_axis',(0.707106781186548,0.707106781186547,0.));
#1458=DIRECTION('',(0.,0.,1.));
#1459=DIRECTION('center_axis',(0.,0.,-1.));
#1460=DIRECTION('ref_axis',(0.707106781186548,0.707106781186547,0.));
#1461=DIRECTION('',(0.,0.,-1.));
#1462=DIRECTION('center_axis',(0.,-1.,0.));
#1463=DIRECTION('ref_axis',(-1.,0.,0.));
#1464=DIRECTION('',(-1.,0.,0.));
#1465=DIRECTION('',(0.,0.,-1.));
#1466=DIRECTION('',(1.,0.,0.));
#1467=DIRECTION('center_axis',(0.,0.,-1.));
#1468=DIRECTION('ref_axis',(-1.,0.,0.));
#1469=DIRECTION('',(0.,1.,0.));
#1470=DIRECTION('',(1.,0.,0.));
#1471=DIRECTION('center_axis',(0.,0.,1.));
#1472=DIRECTION('ref_axis',(-0.707106781186547,0.707106781186548,0.));
#1473=DIRECTION('center_axis',(0.,0.,-1.));
#1474=DIRECTION('ref_axis',(-1.,0.,0.));
#1475=DIRECTION('center_axis',(0.,0.,-1.));
#1476=DIRECTION('ref_axis',(-0.707106781186547,0.707106781186548,0.));
#1477=DIRECTION('center_axis',(0.,0.,-1.));
#1478=DIRECTION('ref_axis',(-0.707106781186547,0.707106781186548,0.));
#1479=DIRECTION('center_axis',(0.,0.,-1.));
#1480=DIRECTION('ref_axis',(0.707106781186548,0.707106781186547,0.));
#1481=DIRECTION('center_axis',(0.,0.,1.));
#1482=DIRECTION('ref_axis',(0.707106781186548,0.707106781186547,0.));
#1483=DIRECTION('',(0.,0.,1.));
#1484=DIRECTION('center_axis',(0.,0.,-1.));
#1485=DIRECTION('ref_axis',(0.707106781186548,0.707106781186547,0.));
#1486=DIRECTION('',(0.,0.,-1.));
#1487=DIRECTION('center_axis',(0.,0.,-1.));
#1488=DIRECTION('ref_axis',(-1.,0.,0.));
#1489=DIRECTION('',(1.,0.,0.));
#1490=DIRECTION('center_axis',(0.,0.,-1.));
#1491=DIRECTION('ref_axis',(-0.707106781186548,0.707106781186547,0.));
#1492=DIRECTION('',(0.,1.,0.));
#1493=DIRECTION('',(1.,0.,0.));
#1494=DIRECTION('',(0.,1.,0.));
#1495=DIRECTION('',(0.,1.,1.53056069949178E-16));
#1496=DIRECTION('',(1.,0.,0.));
#1497=DIRECTION('',(0.,-1.,0.));
#1498=DIRECTION('center_axis',(0.,0.,-1.));
#1499=DIRECTION('ref_axis',(-1.,0.,0.));
#1500=DIRECTION('center_axis',(0.,-1.,0.));
#1501=DIRECTION('ref_axis',(-1.,0.,0.));
#1502=DIRECTION('',(-1.,0.,0.));
#1503=DIRECTION('',(0.,0.,-1.));
#1504=DIRECTION('center_axis',(0.,0.,-1.));
#1505=DIRECTION('ref_axis',(-0.707106781186548,0.707106781186547,0.));
#1506=DIRECTION('center_axis',(0.,0.,1.));
#1507=DIRECTION('ref_axis',(-0.707106781186548,0.707106781186547,0.));
#1508=DIRECTION('',(0.,0.,1.));
#1509=DIRECTION('center_axis',(0.,1.,1.53056069949178E-16));
#1510=DIRECTION('ref_axis',(1.83697019872103E-16,1.53056069949178E-16,-1.));
#1511=DIRECTION('',(0.,-1.,-1.53056069949178E-16));
#1512=DIRECTION('center_axis',(0.,-1.,0.));
#1513=DIRECTION('ref_axis',(-1.,0.,2.07429647145944E-36));
#1514=DIRECTION('center_axis',(0.,-1.,0.));
#1515=DIRECTION('ref_axis',(0.,0.,1.));
#1516=DIRECTION('',(0.,0.,1.));
#1517=DIRECTION('',(1.,0.,0.));
#1518=DIRECTION('center_axis',(0.,1.,0.));
#1519=DIRECTION('ref_axis',(0.965884579558976,0.,-0.258972930960323));
#1520=DIRECTION('',(0.,0.,1.));
#1521=DIRECTION('',(-1.,0.,0.));
#1522=DIRECTION('',(0.,0.,-1.));
#1523=DIRECTION('',(1.,0.,0.));
#1524=DIRECTION('center_axis',(0.,0.,-1.));
#1525=DIRECTION('ref_axis',(-1.,0.,0.));
#1526=DIRECTION('center_axis',(0.,0.,1.));
#1527=DIRECTION('ref_axis',(-1.,0.,0.));
#1528=DIRECTION('',(0.,0.,1.));
#1529=DIRECTION('center_axis',(0.,0.,-1.));
#1530=DIRECTION('ref_axis',(-1.,0.,0.));
#1531=DIRECTION('center_axis',(-1.,0.,0.));
#1532=DIRECTION('ref_axis',(0.,1.,0.));
#1533=DIRECTION('',(0.,1.,0.));
#1534=DIRECTION('center_axis',(1.26940475516782E-30,-0.5,-0.866025403784439));
#1535=DIRECTION('ref_axis',(-4.37648392774061E-30,-0.866025403784439,0.5));
#1536=DIRECTION('',(-1.,3.15544388309375E-30,-3.28757872953039E-30));
#1537=DIRECTION('center_axis',(4.42484863826157E-30,0.5,-0.866025403784439));
#1538=DIRECTION('ref_axis',(-1.08890519821021E-30,-0.866025403784439,-0.5));
#1539=DIRECTION('',(-1.,3.15544388309375E-30,-3.28757872953039E-30));
#1540=DIRECTION('center_axis',(3.15544388309376E-30,1.,6.93889390390714E-17));
#1541=DIRECTION('ref_axis',(3.2875787295304E-30,6.93889390390714E-17,-1.));
#1542=DIRECTION('',(-1.,3.15544388309376E-30,0.));
#1543=DIRECTION('center_axis',(0.,0.,1.));
#1544=DIRECTION('ref_axis',(-1.,0.,0.));
#1545=DIRECTION('',(0.,0.,1.));
#1546=DIRECTION('center_axis',(0.,0.,-1.));
#1547=DIRECTION('ref_axis',(-1.,0.,0.));
#1548=DIRECTION('center_axis',(0.,1.,0.));
#1549=DIRECTION('ref_axis',(1.,0.,0.));
#1550=DIRECTION('center_axis',(0.,0.,1.));
#1551=DIRECTION('ref_axis',(-1.,0.,0.));
#1552=DIRECTION('',(0.,0.,1.));
#1553=DIRECTION('center_axis',(0.,0.,-1.));
#1554=DIRECTION('ref_axis',(-1.,0.,0.));
#1555=DIRECTION('',(0.,-1.,0.));
#1556=DIRECTION('center_axis',(0.,-1.,0.));
#1557=DIRECTION('ref_axis',(0.965884579558976,0.,-0.258972930960323));
#1558=DIRECTION('center_axis',(0.,0.,-1.));
#1559=DIRECTION('ref_axis',(-1.,0.,0.));
#1560=DIRECTION('',(0.,1.,0.));
#1561=DIRECTION('center_axis',(0.,1.,0.));
#1562=DIRECTION('ref_axis',(0.,0.,-1.));
#1563=DIRECTION('',(0.,0.,-1.));
#1564=DIRECTION('center_axis',(1.,0.,0.));
#1565=DIRECTION('ref_axis',(0.,-1.,0.));
#1566=DIRECTION('center_axis',(0.,0.,1.));
#1567=DIRECTION('ref_axis',(-1.,0.,0.));
#1568=DIRECTION('center_axis',(0.,0.,-1.));
#1569=DIRECTION('ref_axis',(-1.,0.,0.));
#1570=DIRECTION('',(0.,0.,1.));
#1571=DIRECTION('center_axis',(1.,0.,0.));
#1572=DIRECTION('ref_axis',(0.,-1.,0.));
#1573=DIRECTION('',(0.,-1.,0.));
#1574=DIRECTION('center_axis',(0.,0.,-1.));
#1575=DIRECTION('ref_axis',(-1.,0.,0.));
#1576=DIRECTION('',(0.,1.,0.));
#1577=DIRECTION('center_axis',(-1.,0.,0.));
#1578=DIRECTION('ref_axis',(0.,0.,1.));
#1579=CARTESIAN_POINT('',(0.,0.,0.));
#1580=CARTESIAN_POINT('Origin',(169.228273488917,-18.2,-30.8999999999999));
#1581=CARTESIAN_POINT('',(73.1875410750594,-18.7,-30.3999999999999));
#1582=CARTESIAN_POINT('',(73.1875410750594,-17.7,-31.3999999999999));
#1583=CARTESIAN_POINT('',(73.1875410750594,-21.375,-27.7249999999999));
#1584=CARTESIAN_POINT('',(169.228273488917,-17.7,-31.3999999999999));
#1585=CARTESIAN_POINT('',(169.228273488917,-17.7,-31.3999999999999));
#1586=CARTESIAN_POINT('',(169.228273488917,-18.7,-30.3999999999999));
#1587=CARTESIAN_POINT('',(169.228273488917,-21.375,-27.7249999999999));
#1588=CARTESIAN_POINT('',(169.228273488917,-18.7,-30.3999999999999));
#1589=CARTESIAN_POINT('Origin',(169.228273488917,0.,3.54716256367738E-14));
#1590=CARTESIAN_POINT('',(169.228273488917,17.7,-31.3999999999999));
#1591=CARTESIAN_POINT('',(169.228273488917,-18.7,-31.3999999999999));
#1592=CARTESIAN_POINT('',(169.228273488917,18.7,-30.3999999999999));
#1593=CARTESIAN_POINT('',(169.228273488917,21.375,-27.7249999999999));
#1594=CARTESIAN_POINT('',(169.228273488917,18.7,-5.55111512311837E-17));
#1595=CARTESIAN_POINT('',(169.228273488917,18.7,-31.3999999999999));
#1596=CARTESIAN_POINT('',(169.228273488917,12.7,-5.55111512311837E-17));
#1597=CARTESIAN_POINT('',(169.228273488917,-5.55111512312578E-16,-5.55111512311837E-17));
#1598=CARTESIAN_POINT('',(169.228273488917,12.7,-25.3999999999999));
#1599=CARTESIAN_POINT('',(169.228273488917,12.7,25.4));
#1600=CARTESIAN_POINT('',(169.228273488917,-12.7,-25.3999999999999));
#1601=CARTESIAN_POINT('',(169.228273488917,12.7,-25.3999999999999));
#1602=CARTESIAN_POINT('',(169.228273488917,-12.7,-5.55111512311837E-17));
#1603=CARTESIAN_POINT('',(169.228273488917,-12.7,-25.3999999999999));
#1604=CARTESIAN_POINT('',(169.228273488917,-23.2,-5.55111512311837E-17));
#1605=CARTESIAN_POINT('',(169.228273488917,-5.55111512312578E-16,-5.55111512311837E-17));
#1606=CARTESIAN_POINT('',(169.228273488917,-23.2,-4.));
#1607=CARTESIAN_POINT('',(169.228273488917,-23.2,1.77080572427713E-14));
#1608=CARTESIAN_POINT('',(169.228273488917,-18.7,-4.));
#1609=CARTESIAN_POINT('',(169.228273488917,-31.2,-4.));
#1610=CARTESIAN_POINT('',(169.228273488917,-18.7,31.4));
#1611=CARTESIAN_POINT('Origin',(169.228273488917,-18.7,-31.3999999999999));
#1612=CARTESIAN_POINT('',(73.1875410750594,17.7,-31.3999999999999));
#1613=CARTESIAN_POINT('',(73.1875410750594,-9.35,-31.3999999999999));
#1614=CARTESIAN_POINT('',(169.228273488917,17.7,-31.3999999999999));
#1615=CARTESIAN_POINT('',(115.849405328163,12.7,-31.3999999999999));
#1616=CARTESIAN_POINT('',(79.1875410750594,12.7,-31.3999999999999));
#1617=CARTESIAN_POINT('',(124.207907281988,12.7,-31.3999999999999));
#1618=CARTESIAN_POINT('',(79.1875410750594,-12.7,-31.3999999999999));
#1619=CARTESIAN_POINT('',(79.1875410750594,-15.7,-31.3999999999999));
#1620=CARTESIAN_POINT('',(115.849405328163,-12.7,-31.3999999999999));
#1621=CARTESIAN_POINT('',(143.718090385453,-12.7,-31.3999999999999));
#1622=CARTESIAN_POINT('',(118.207907281988,-10.3414980461748,-31.3999999999999));
#1623=CARTESIAN_POINT('',(128.283747856808,-0.265657471355174,-31.3999999999999));
#1624=CARTESIAN_POINT('',(118.207907281988,10.3414980461748,-31.3999999999999));
#1625=CARTESIAN_POINT('',(118.207907281988,-3.,-31.3999999999999));
#1626=CARTESIAN_POINT('',(137.633747856808,-9.0843425286448,-31.3999999999999));
#1627=CARTESIAN_POINT('',(126.566409235814,-12.7,-31.3999999999999));
#1628=CARTESIAN_POINT('',(163.228273488917,-12.7,-31.3999999999999));
#1629=CARTESIAN_POINT('',(166.228273488917,-12.7,-31.3999999999999));
#1630=CARTESIAN_POINT('',(163.228273488917,12.7,-31.3999999999999));
#1631=CARTESIAN_POINT('',(163.228273488917,-3.,-31.3999999999999));
#1632=CARTESIAN_POINT('',(126.566409235814,12.7,-31.3999999999999));
#1633=CARTESIAN_POINT('',(146.718090385453,12.7,-31.3999999999999));
#1634=CARTESIAN_POINT('',(124.207907281988,10.3414980461748,-31.3999999999999));
#1635=CARTESIAN_POINT('',(128.792249810633,14.9258405748197,-31.3999999999999));
#1636=CARTESIAN_POINT('',(124.207907281988,-10.3414980461748,-31.3999999999999));
#1637=CARTESIAN_POINT('',(124.207907281988,-15.7,-31.3999999999999));
#1638=CARTESIAN_POINT('',(138.142249810633,-24.2758405748197,-31.3999999999999));
#1639=CARTESIAN_POINT('Origin',(169.228273488917,18.2,-30.8999999999999));
#1640=CARTESIAN_POINT('',(73.1875410750594,18.7,-30.3999999999999));
#1641=CARTESIAN_POINT('',(73.1875410750594,21.375,-27.7249999999999));
#1642=CARTESIAN_POINT('',(169.228273488917,18.7,-30.3999999999999));
#1643=CARTESIAN_POINT('Origin',(125.387158258901,11.5207490230874,28.4));
#1644=CARTESIAN_POINT('',(126.566409235814,12.7,-25.3999999999999));
#1645=CARTESIAN_POINT('',(124.207907281988,10.3414980461748,-25.3999999999999));
#1646=CARTESIAN_POINT('',(136.642249810633,22.7758405748197,-25.3999999999999));
#1647=CARTESIAN_POINT('',(124.207907281988,10.3414980461748,28.4));
#1648=CARTESIAN_POINT('',(126.566409235814,12.7,28.4));
#1649=CARTESIAN_POINT('Origin',(124.207907281988,-12.7,31.3999999999999));
#1650=CARTESIAN_POINT('',(124.207907281988,-10.3414980461748,-25.3999999999999));
#1651=CARTESIAN_POINT('',(124.207907281988,0.,-25.3999999999999));
#1652=CARTESIAN_POINT('',(124.207907281988,-10.3414980461748,2.99999999999999));
#1653=CARTESIAN_POINT('Origin',(117.028656305076,11.5207490230874,28.4));
#1654=CARTESIAN_POINT('',(118.207907281988,10.3414980461748,-25.3999999999999));
#1655=CARTESIAN_POINT('',(115.849405328163,12.7,-25.3999999999999));
#1656=CARTESIAN_POINT('',(129.783747856808,-1.23434252864482,-25.3999999999999));
#1657=CARTESIAN_POINT('',(115.849405328163,12.7,28.4));
#1658=CARTESIAN_POINT('',(118.207907281988,10.3414980461748,28.4));
#1659=CARTESIAN_POINT('Origin',(169.228273488917,12.7,25.4));
#1660=CARTESIAN_POINT('',(163.228273488917,12.7,-25.3999999999999));
#1661=CARTESIAN_POINT('',(163.228273488917,12.7,31.3999999999999));
#1662=CARTESIAN_POINT('',(169.228273488917,12.7,-25.3999999999999));
#1663=CARTESIAN_POINT('',(163.314355714608,12.7,-2.32572092397682E-14));
#1664=CARTESIAN_POINT('',(145.218090385453,12.7,-5.55111512311837E-17));
#1665=CARTESIAN_POINT('',(158.118062587283,12.7,-2.34133343526061E-14));
#1666=CARTESIAN_POINT('Origin',(160.716209150946,12.7,-0.0981551513237494));
#1667=CARTESIAN_POINT('',(118.213513505397,12.7,-2.77555756155918E-17));
#1668=CARTESIAN_POINT('',(145.218090385453,12.7,-5.55111512311837E-17));
#1669=CARTESIAN_POINT('',(94.5700629501052,12.7,-2.77555756155918E-17));
#1670=CARTESIAN_POINT('Origin',(106.391788227751,12.7,6.21724893790088E-14));
#1671=CARTESIAN_POINT('',(79.1875410750594,12.7,0.));
#1672=CARTESIAN_POINT('',(100.197724178524,12.7,0.));
#1673=CARTESIAN_POINT('',(79.1875410750594,12.7,31.3999999999999));
#1674=CARTESIAN_POINT('',(169.228273488917,12.7,-25.3999999999999));
#1675=CARTESIAN_POINT('Origin',(117.028656305076,-11.5207490230874,31.3999999999999));
#1676=CARTESIAN_POINT('',(115.849405328163,-12.7,-25.3999999999999));
#1677=CARTESIAN_POINT('',(118.207907281988,-10.3414980461748,-25.3999999999999));
#1678=CARTESIAN_POINT('',(136.133747856808,7.5843425286448,-25.3999999999999));
#1679=CARTESIAN_POINT('',(118.207907281988,-10.3414980461748,31.3999999999999));
#1680=CARTESIAN_POINT('',(115.849405328163,-12.7,31.3999999999999));
#1681=CARTESIAN_POINT('Origin',(118.207907281988,12.7,31.3999999999999));
#1682=CARTESIAN_POINT('',(118.207907281988,12.7,-25.3999999999999));
#1683=CARTESIAN_POINT('Origin',(125.387158258901,-11.5207490230874,2.99999999999999));
#1684=CARTESIAN_POINT('',(126.566409235814,-12.7,-25.3999999999999));
#1685=CARTESIAN_POINT('',(130.292249810633,-16.4258405748196,-25.3999999999999));
#1686=CARTESIAN_POINT('',(126.566409235814,-12.7,2.99999999999999));
#1687=CARTESIAN_POINT('Origin',(169.228273488917,-12.7,-25.3999999999999));
#1688=CARTESIAN_POINT('',(152.91152667411,-12.7000000187377,-25.3999998344837));
#1689=CARTESIAN_POINT('',(166.228273488917,-12.7,-25.3999999999999));
#1690=CARTESIAN_POINT('',(152.91152667411,-12.7,-3.93351053450713E-17));
#1691=CARTESIAN_POINT('',(152.91152667411,-12.7,-25.3999999172418));
#1692=CARTESIAN_POINT('',(145.218090385453,-12.7,-5.55111512311837E-17));
#1693=CARTESIAN_POINT('',(163.228273488917,-12.7,-25.3999999999999));
#1694=CARTESIAN_POINT('',(169.228273488917,-12.7,-25.3999999999999));
#1695=CARTESIAN_POINT('',(163.228273488917,-12.7,31.3999999999999));
#1696=CARTESIAN_POINT('Origin',(118.207907281988,-12.7,31.3999999999999));
#1697=CARTESIAN_POINT('',(79.1875410750594,-12.7,0.));
#1698=CARTESIAN_POINT('',(79.1875410750594,-12.7,31.3999999999999));
#1699=CARTESIAN_POINT('',(89.5042937091064,-12.7,-5.55111512311837E-17));
#1700=CARTESIAN_POINT('',(119.707907281988,-12.7,0.));
#1701=CARTESIAN_POINT('',(89.5042937091064,-12.7,-25.3999999999999));
#1702=CARTESIAN_POINT('',(89.5042937091064,-12.7,15.7));
#1703=CARTESIAN_POINT('',(143.718090385453,-12.7,-25.3999999999999));
#1704=CARTESIAN_POINT('Origin',(79.1875410750594,-12.7,31.3999999999999));
#1705=CARTESIAN_POINT('',(79.1875410750594,7.33012701892223,-5.55111512311837E-17));
#1706=CARTESIAN_POINT('',(79.1875410750594,-6.35,0.));
#1707=CARTESIAN_POINT('',(79.1875410750594,7.33012701892225,-4.23205080756884));
#1708=CARTESIAN_POINT('',(79.1875410750594,7.33012701892223,16.95));
#1709=CARTESIAN_POINT('',(79.1875410750594,5.08883890891975E-14,-8.46410161513771));
#1710=CARTESIAN_POINT('',(79.1875410750594,6.78339468389949,-4.54770686836889));
#1711=CARTESIAN_POINT('',(79.1875410750594,-7.33012701892214,-4.23205080756884));
#1712=CARTESIAN_POINT('',(79.1875410750594,-14.1433311744383,-0.298445554337687));
#1713=CARTESIAN_POINT('',(79.1875410750594,-7.33012701892214,-5.55111512311837E-17));
#1714=CARTESIAN_POINT('',(79.1875410750594,-7.33012701892215,14.45));
#1715=CARTESIAN_POINT('',(79.1875410750594,-6.35,0.));
#1716=CARTESIAN_POINT('Origin',(163.228273488917,12.7,31.3999999999999));
#1717=CARTESIAN_POINT('',(163.228273488917,12.7,-25.3999999999999));
#1718=CARTESIAN_POINT('Origin',(89.5042937091064,-31.2,-5.55111512311837E-17));
#1719=CARTESIAN_POINT('',(89.5042937091064,-23.2,-5.55111512311837E-17));
#1720=CARTESIAN_POINT('',(89.5042937091064,-6.35000004577637,-5.55111512311837E-17));
#1721=CARTESIAN_POINT('',(89.5042937091064,-23.2,-4.));
#1722=CARTESIAN_POINT('',(89.5042937091064,-23.2,-5.55111512311837E-17));
#1723=CARTESIAN_POINT('',(89.5042937091064,-18.7,-4.));
#1724=CARTESIAN_POINT('',(89.5042937091064,-31.2,-4.));
#1725=CARTESIAN_POINT('',(89.5042937091064,-18.7,-25.3999991912842));
#1726=CARTESIAN_POINT('',(89.5042937091064,-18.7,28.3999995956421));
#1727=CARTESIAN_POINT('',(89.5042937091064,4.15725000000001,-25.3999999999999));
#1728=CARTESIAN_POINT('Origin',(121.207907281988,-1.11022302462516E-15,
-5.55111512311837E-17));
#1729=CARTESIAN_POINT('',(73.1875392208605,-7.33012701892214,-5.55111512311837E-17));
#1730=CARTESIAN_POINT('',(117.813881916051,-7.33012701892214,-5.55111512311837E-17));
#1731=CARTESIAN_POINT('',(73.1875392208605,-23.2,-5.55111512311837E-17));
#1732=CARTESIAN_POINT('',(73.1875392208605,-4.3855,-5.55111512311837E-17));
#1733=CARTESIAN_POINT('',(81.1875410750594,-31.2,-5.55111512311837E-17));
#1734=CARTESIAN_POINT('Origin',(81.1875410750594,-23.2,-5.55111512311837E-17));
#1735=CARTESIAN_POINT('',(81.5042937091064,-31.2,-5.55111512311837E-17));
#1736=CARTESIAN_POINT('',(73.1875410750594,-31.2,-5.55111512311837E-17));
#1737=CARTESIAN_POINT('Origin',(81.5042937091064,-23.2,-5.55111512311837E-17));
#1738=CARTESIAN_POINT('',(83.3459173920829,-24.95,-5.55111512311837E-17));
#1739=CARTESIAN_POINT('Origin',(81.3459173920829,-24.95,-5.55111512311837E-17));
#1740=CARTESIAN_POINT('Origin',(120.543724611242,-7.33012701892214,-2.49999999999995));
#1741=CARTESIAN_POINT('',(73.1875392208605,-7.33012701892214,-4.23205080756884));
#1742=CARTESIAN_POINT('',(120.543724611242,-7.33012701892214,-4.23205080756884));
#1743=CARTESIAN_POINT('',(73.1875392208605,-7.33012701892213,-21.438));
#1744=CARTESIAN_POINT('Origin',(169.228273488917,12.7,-25.3999999999999));
#1745=CARTESIAN_POINT('Origin',(169.228273488917,12.7,-25.3999999999999));
#1746=CARTESIAN_POINT('',(152.91152667411,-18.7,-25.3999998344837));
#1747=CARTESIAN_POINT('',(169.228273488917,-18.7,-25.3999999999999));
#1748=CARTESIAN_POINT('',(152.91152085487,-3.,-25.3999999999999));
#1749=CARTESIAN_POINT('Origin',(81.1875410750594,-23.2,1.77080572427713E-14));
#1750=CARTESIAN_POINT('',(73.1875410750594,-23.2,-4.));
#1751=CARTESIAN_POINT('',(81.1875410750594,-31.2,-4.));
#1752=CARTESIAN_POINT('Origin',(81.1875410750594,-23.2,-4.));
#1753=CARTESIAN_POINT('',(81.1875410750594,-31.2,1.77080572427713E-14));
#1754=CARTESIAN_POINT('',(73.1875410750594,-23.2,1.77080572427713E-14));
#1755=CARTESIAN_POINT('Origin',(73.1875410750594,0.,3.54716256367738E-14));
#1756=CARTESIAN_POINT('',(73.1875410750594,-18.7,-4.));
#1757=CARTESIAN_POINT('',(73.1875410750594,-18.7,15.7));
#1758=CARTESIAN_POINT('',(73.1875410750594,-31.2,-4.));
#1759=CARTESIAN_POINT('',(73.1875392208605,5.08883890891975E-14,-8.46410161513771));
#1760=CARTESIAN_POINT('',(73.1875392208605,4.51456617106962,-11.0705876092791));
#1761=CARTESIAN_POINT('',(73.1875392208605,7.33012701892225,-4.23205080756884));
#1762=CARTESIAN_POINT('',(73.1875392208605,-5.63862766160846,-11.7195648134274));
#1763=CARTESIAN_POINT('',(73.1875392208605,7.33012701892223,-5.55111512311837E-17));
#1764=CARTESIAN_POINT('',(73.1875392208605,7.33012701892223,-18.938));
#1765=CARTESIAN_POINT('',(73.1875410750594,23.2,-5.55111512311837E-17));
#1766=CARTESIAN_POINT('',(73.1875410750594,18.7,-5.55111512311837E-17));
#1767=CARTESIAN_POINT('',(73.1875410750594,23.2,-4.));
#1768=CARTESIAN_POINT('',(73.1875410750594,23.2,1.77080572427713E-14));
#1769=CARTESIAN_POINT('',(73.1875410750594,18.7,-4.));
#1770=CARTESIAN_POINT('',(73.1875410750594,18.7,-4.));
#1771=CARTESIAN_POINT('',(73.1875410750594,18.7,-7.84999749999996));
#1772=CARTESIAN_POINT('Origin',(81.5042937091064,-23.2,-5.55111512311837E-17));
#1773=CARTESIAN_POINT('',(81.5042937091064,-31.2,-4.));
#1774=CARTESIAN_POINT('Origin',(81.5042937091064,-23.2,-4.));
#1775=CARTESIAN_POINT('',(81.5042937091064,-31.2,-5.55111512311837E-17));
#1776=CARTESIAN_POINT('Origin',(121.207906354889,-30.6349364905389,-4.));
#1777=CARTESIAN_POINT('',(145.218089921903,-18.7,-4.));
#1778=CARTESIAN_POINT('',(73.1875410750594,-31.2,-4.));
#1779=CARTESIAN_POINT('',(83.3459173920829,-24.95,-4.));
#1780=CARTESIAN_POINT('Origin',(81.3459173920829,-24.95,-4.));
#1781=CARTESIAN_POINT('Origin',(160.91152085487,-23.2,-5.55111512311837E-17));
#1782=CARTESIAN_POINT('',(152.91152085487,-23.2,-4.));
#1783=CARTESIAN_POINT('',(160.91152085487,-31.2,-4.));
#1784=CARTESIAN_POINT('Origin',(160.91152085487,-23.2,-4.));
#1785=CARTESIAN_POINT('',(160.91152085487,-31.2,-5.55111512311837E-17));
#1786=CARTESIAN_POINT('',(160.91152085487,-31.2,-5.55111512311837E-17));
#1787=CARTESIAN_POINT('',(152.91152667411,-23.2,-5.55111512311837E-17));
#1788=CARTESIAN_POINT('Origin',(160.91152085487,-23.2,-5.55111512311837E-17));
#1789=CARTESIAN_POINT('',(152.91152085487,-23.2,-5.55111512311837E-17));
#1790=CARTESIAN_POINT('Origin',(152.91152085487,-31.2,-5.55111512311837E-17));
#1791=CARTESIAN_POINT('',(161.228273488917,-31.2,-4.));
#1792=CARTESIAN_POINT('',(152.91152085487,-31.2,-4.));
#1793=CARTESIAN_POINT('',(161.228273488917,-31.2,-5.55111512311837E-17));
#1794=CARTESIAN_POINT('',(161.228273488917,-31.2,1.77080572427713E-14));
#1795=CARTESIAN_POINT('',(152.91152085487,-31.2,-5.55111512311837E-17));
#1796=CARTESIAN_POINT('Origin',(200.9318861347,-30.6349364905389,-4.));
#1797=CARTESIAN_POINT('',(152.91152085487,-18.7,-4.));
#1798=CARTESIAN_POINT('',(152.91152085487,-31.2,-4.));
#1799=CARTESIAN_POINT('',(185.080079811809,-18.7,-4.));
#1800=CARTESIAN_POINT('Origin',(161.228273488917,-23.2,-4.));
#1801=CARTESIAN_POINT('',(163.069897171894,-24.95,-4.));
#1802=CARTESIAN_POINT('Origin',(161.069897171894,-24.95,-4.));
#1803=CARTESIAN_POINT('Origin',(161.228273488917,-23.2,1.77080572427713E-14));
#1804=CARTESIAN_POINT('Origin',(161.228273488917,-23.2,-5.55111512311837E-17));
#1805=CARTESIAN_POINT('Origin',(81.5042937091064,23.2,-5.55111512311837E-17));
#1806=CARTESIAN_POINT('',(89.5042937091064,23.2,-4.));
#1807=CARTESIAN_POINT('',(81.5042937091064,31.2,-4.));
#1808=CARTESIAN_POINT('Origin',(81.5042937091064,23.2,-4.));
#1809=CARTESIAN_POINT('',(81.5042937091064,31.2,-5.55111512311837E-17));
#1810=CARTESIAN_POINT('',(81.5042937091064,31.2,-5.55111512311837E-17));
#1811=CARTESIAN_POINT('',(89.5042937091064,23.2,-5.55111512311837E-17));
#1812=CARTESIAN_POINT('Origin',(81.5042937091064,23.2,-5.55111512311837E-17));
#1813=CARTESIAN_POINT('',(89.5042937091064,23.2,-5.55111512311837E-17));
#1814=CARTESIAN_POINT('Origin',(89.5042937091064,31.2,-5.55111512311837E-17));
#1815=CARTESIAN_POINT('',(81.1875410750594,31.2,-4.));
#1816=CARTESIAN_POINT('',(73.1875410750594,31.2,-4.));
#1817=CARTESIAN_POINT('',(81.1875410750594,31.2,-5.55111512311837E-17));
#1818=CARTESIAN_POINT('',(81.1875410750594,31.2,1.77080572427713E-14));
#1819=CARTESIAN_POINT('',(73.1875410750594,31.2,-5.55111512311837E-17));
#1820=CARTESIAN_POINT('Origin',(121.207906354889,19.2650635094611,-4.));
#1821=CARTESIAN_POINT('',(89.5042937091064,18.7,-4.));
#1822=CARTESIAN_POINT('',(89.5042937091064,18.7,-4.));
#1823=CARTESIAN_POINT('',(145.218089921903,18.7,-4.));
#1824=CARTESIAN_POINT('Origin',(81.1875410750594,23.2,-4.));
#1825=CARTESIAN_POINT('',(83.3459173920829,24.95,-4.));
#1826=CARTESIAN_POINT('Origin',(81.3459173920829,24.95,-4.));
#1827=CARTESIAN_POINT('Origin',(81.1875410750594,23.2,1.77080572427713E-14));
#1828=CARTESIAN_POINT('Origin',(81.1875410750594,23.2,-5.55111512311837E-17));
#1829=CARTESIAN_POINT('Origin',(146.231483687392,23.2,1.77080572427713E-14));
#1830=CARTESIAN_POINT('',(154.231483687392,23.2,-4.));
#1831=CARTESIAN_POINT('',(146.231483687392,31.2,-4.));
#1832=CARTESIAN_POINT('Origin',(146.231483687392,23.2,-4.));
#1833=CARTESIAN_POINT('',(146.231483687392,31.2,-5.55111512311837E-17));
#1834=CARTESIAN_POINT('',(146.231483687392,31.2,1.77080572427713E-14));
#1835=CARTESIAN_POINT('',(154.231483687392,23.2,-5.55111512311837E-17));
#1836=CARTESIAN_POINT('Origin',(146.231483687392,23.2,-5.55111512311837E-17));
#1837=CARTESIAN_POINT('',(154.231483687392,23.2,1.77080572427713E-14));
#1838=CARTESIAN_POINT('Origin',(106.211117480463,-1.11022302462516E-15,
-5.55111512311837E-17));
#1839=CARTESIAN_POINT('',(145.914731053345,31.2,-5.55111512311837E-17));
#1840=CARTESIAN_POINT('',(137.914731053345,31.2,-5.55111512311837E-17));
#1841=CARTESIAN_POINT('',(137.914731053345,23.2,-5.55111512311837E-17));
#1842=CARTESIAN_POINT('Origin',(145.914731053345,23.2,-5.55111512311837E-17));
#1843=CARTESIAN_POINT('',(137.914731053345,18.7,-5.55111512311837E-17));
#1844=CARTESIAN_POINT('',(137.914731053345,18.7,-5.55111512311837E-17));
#1845=CARTESIAN_POINT('',(118.213513505397,18.7,-2.77555756155918E-17));
#1846=CARTESIAN_POINT('',(121.207906818439,18.7,0.));
#1847=CARTESIAN_POINT('',(118.213513505397,-37.26825855111,-5.55111512311837E-17));
#1848=CARTESIAN_POINT('',(158.118062587283,18.7,-2.3368765053517E-14));
#1849=CARTESIAN_POINT('',(158.118062587284,3.6525565396065,-5.20417042793042E-17));
#1850=CARTESIAN_POINT('',(154.231483687392,18.7,-5.55111512311837E-17));
#1851=CARTESIAN_POINT('',(121.207906818439,18.7,0.));
#1852=CARTESIAN_POINT('',(154.231483687392,-5.55111512312578E-16,-5.55111512311837E-17));
#1853=CARTESIAN_POINT('',(148.073107370368,24.95,-5.55111512311837E-17));
#1854=CARTESIAN_POINT('Origin',(146.073107370368,24.95,-5.55111512311837E-17));
#1855=CARTESIAN_POINT('Origin',(154.231483687392,31.2,-5.55111512311837E-17));
#1856=CARTESIAN_POINT('',(145.914731053345,31.2,-4.));
#1857=CARTESIAN_POINT('',(137.914731053345,31.2,-4.));
#1858=CARTESIAN_POINT('',(145.914731053345,31.2,-5.55111512311837E-17));
#1859=CARTESIAN_POINT('Origin',(145.914731053345,23.2,-5.55111512311837E-17));
#1860=CARTESIAN_POINT('',(137.914731053345,23.2,-4.));
#1861=CARTESIAN_POINT('Origin',(145.914731053345,23.2,-4.));
#1862=CARTESIAN_POINT('',(137.914731053345,23.2,-5.55111512311837E-17));
#1863=CARTESIAN_POINT('Origin',(160.716209150946,3.6525565396065,-0.0981551513237508));
#1864=CARTESIAN_POINT('',(163.314355714608,18.7,-2.33514178187573E-14));
#1865=CARTESIAN_POINT('',(163.314355714608,3.6525565396065,-5.20417042793042E-17));
#1866=CARTESIAN_POINT('Origin',(160.716209150946,18.7,-0.0981551513237485));
#1867=CARTESIAN_POINT('Origin',(169.228273488917,18.7,-31.3999999999999));
#1868=CARTESIAN_POINT('',(89.5042937091064,18.7,-5.55111512311837E-17));
#1869=CARTESIAN_POINT('',(89.5042937091064,18.7,-15.7));
#1870=CARTESIAN_POINT('',(94.5700629501052,18.7,-2.77555756155918E-17));
#1871=CARTESIAN_POINT('',(121.207906818439,18.7,0.));
#1872=CARTESIAN_POINT('Origin',(106.391788227751,18.7,6.21724893790088E-14));
#1873=CARTESIAN_POINT('',(137.914731053345,18.7,-4.));
#1874=CARTESIAN_POINT('',(137.914731053345,18.7,-15.7));
#1875=CARTESIAN_POINT('',(154.231483687392,18.7,-4.));
#1876=CARTESIAN_POINT('',(170.083290010283,18.7,-4.));
#1877=CARTESIAN_POINT('',(154.231483687392,18.7,-7.84999749999996));
#1878=CARTESIAN_POINT('',(121.207906818439,18.7,0.));
#1879=CARTESIAN_POINT('Origin',(106.211117480463,-1.11022302462516E-15,
-5.55111512311837E-17));
#1880=CARTESIAN_POINT('Origin',(81.3459173920829,24.95,-5.55111512311837E-17));
#1881=CARTESIAN_POINT('',(83.3459173920829,24.95,-5.55111512311837E-17));
#1882=CARTESIAN_POINT('',(83.3459173920829,24.95,-5.55111512311837E-17));
#1883=CARTESIAN_POINT('Origin',(81.3459173920829,24.95,-5.55111512311837E-17));
#1884=CARTESIAN_POINT('Origin',(89.5042937091064,18.7,-5.55111512311837E-17));
#1885=CARTESIAN_POINT('',(89.5042937091064,18.7,-5.55111512311837E-17));
#1886=CARTESIAN_POINT('Origin',(120.543724611242,-1.49999999999995,-7.59807621135327));
#1887=CARTESIAN_POINT('',(103.533672033911,5.08883890891974E-14,-8.46410161513771));
#1888=CARTESIAN_POINT('Origin',(120.543724611242,5.83012701892224,-5.09807621135327));
#1889=CARTESIAN_POINT('',(103.533672033911,7.33012701892225,-4.23205080756884));
#1890=CARTESIAN_POINT('Origin',(120.543724611242,7.33012701892223,2.50000000000004));
#1891=CARTESIAN_POINT('',(117.813881916051,7.33012701892223,-5.55111512311837E-17));
#1892=CARTESIAN_POINT('Origin',(161.069897171894,-24.95,-5.55111512311837E-17));
#1893=CARTESIAN_POINT('',(163.069897171894,-24.95,-5.55111512311837E-17));
#1894=CARTESIAN_POINT('',(163.069897171894,-24.95,-5.55111512311837E-17));
#1895=CARTESIAN_POINT('Origin',(161.069897171894,-24.95,-5.55111512311837E-17));
#1896=CARTESIAN_POINT('Origin',(73.1875410750594,-31.2,-5.55111512311837E-17));
#1897=CARTESIAN_POINT('Origin',(81.3459173920829,-24.95,-5.55111512311837E-17));
#1898=CARTESIAN_POINT('',(83.3459173920829,-24.95,-5.55111512311837E-17));
#1899=CARTESIAN_POINT('Origin',(121.207907281988,-1.11022302462516E-15,
-5.55111512311837E-17));
#1900=CARTESIAN_POINT('',(94.5700629501052,-37.26825855111,-5.55111512311837E-17));
#1901=CARTESIAN_POINT('Origin',(106.391788227751,-37.26825855111,6.21724893790088E-14));
#1902=CARTESIAN_POINT('Origin',(121.207907281988,-1.11022302462516E-15,
-5.55111512311837E-17));
#1903=CARTESIAN_POINT('',(152.91152667411,-6.35,-5.55111512311837E-17));
#1904=CARTESIAN_POINT('Origin',(169.228273488917,-18.7,31.4));
#1905=CARTESIAN_POINT('',(152.91152667411,-18.7,3.00000008275814));
#1906=CARTESIAN_POINT('Origin',(152.91152085487,-18.7,-5.55111512311837E-17));
#1907=CARTESIAN_POINT('Origin',(146.073107370368,24.95,-5.55111512311837E-17));
#1908=CARTESIAN_POINT('',(148.073107370368,24.95,-4.));
#1909=CARTESIAN_POINT('Origin',(146.073107370368,24.95,-4.));
#1910=CARTESIAN_POINT('',(148.073107370368,24.95,-5.55111512311837E-17));
#1911=CARTESIAN_POINT('Origin',(137.914731053345,31.2,-5.55111512311837E-17));
#1912=CARTESIAN_POINT('',(137.914731053345,18.7,-4.));
#1913=CARTESIAN_POINT('Origin',(185.935096333174,19.2650635094611,-4.));
#1914=CARTESIAN_POINT('',(154.231483687392,18.7,-4.));
#1915=CARTESIAN_POINT('Origin',(154.231483687392,0.,3.54716256367738E-14));
#1916=UNCERTAINTY_MEASURE_WITH_UNIT(LENGTH_MEASURE(0.01),#1920,
'DISTANCE_ACCURACY_VALUE',
'Maximum model space distance between geometric entities at asserted c
onnectivities');
#1917=UNCERTAINTY_MEASURE_WITH_UNIT(LENGTH_MEASURE(0.01),#1920,
'DISTANCE_ACCURACY_VALUE',
'Maximum model space distance between geometric entities at asserted c
onnectivities');
#1918=(
GEOMETRIC_REPRESENTATION_CONTEXT(3)
GLOBAL_UNCERTAINTY_ASSIGNED_CONTEXT((#1916))
GLOBAL_UNIT_ASSIGNED_CONTEXT((#1920,#1921,#1922))
REPRESENTATION_CONTEXT('','3D')
);
#1919=(
GEOMETRIC_REPRESENTATION_CONTEXT(3)
GLOBAL_UNCERTAINTY_ASSIGNED_CONTEXT((#1917))
GLOBAL_UNIT_ASSIGNED_CONTEXT((#1920,#1921,#1922))
REPRESENTATION_CONTEXT('','3D')
);
#1920=(
LENGTH_UNIT()
NAMED_UNIT(*)
SI_UNIT(.MILLI.,.METRE.)
);
#1921=(
NAMED_UNIT(*)
PLANE_ANGLE_UNIT()
SI_UNIT($,.RADIAN.)
);
#1922=(
NAMED_UNIT(*)
SI_UNIT($,.STERADIAN.)
SOLID_ANGLE_UNIT()
);
#1923=SHAPE_DEFINITION_REPRESENTATION(#1924,#1925);
#1924=PRODUCT_DEFINITION_SHAPE('',$,#1927);
#1925=SHAPE_REPRESENTATION('',(#1184),#1918);
#1926=PRODUCT_DEFINITION_CONTEXT('part definition',#1931,'design');
#1927=PRODUCT_DEFINITION('RU3Y_kyle_2000_01',
'RU3YNext_clean_004_inspected_NEWMOUNTS',#1928,#1926);
#1928=PRODUCT_DEFINITION_FORMATION('',$,#1933);
#1929=PRODUCT_RELATED_PRODUCT_CATEGORY(
'RU3YNext_clean_004_inspected_NEWMOUNTS',
'RU3YNext_clean_004_inspected_NEWMOUNTS',(#1933));
#1930=APPLICATION_PROTOCOL_DEFINITION('international standard',
'automotive_design',2009,#1931);
#1931=APPLICATION_CONTEXT(
'Core Data for Automotive Mechanical Design Process');
#1932=PRODUCT_CONTEXT('part definition',#1931,'mechanical');
#1933=PRODUCT('RU3Y_kyle_2000_01',
'RU3YNext_clean_004_inspected_NEWMOUNTS',$,(#1932));
#1934=PRESENTATION_STYLE_ASSIGNMENT((#1943));
#1935=PRESENTATION_STYLE_ASSIGNMENT((#1944));
#1936=PRESENTATION_STYLE_ASSIGNMENT((#1945));
#1937=PRESENTATION_STYLE_ASSIGNMENT((#1946));
#1938=PRESENTATION_STYLE_ASSIGNMENT((#1947));
#1939=PRESENTATION_STYLE_ASSIGNMENT((#1948));
#1940=PRESENTATION_STYLE_ASSIGNMENT((#1949));
#1941=PRESENTATION_STYLE_ASSIGNMENT((#1950));
#1942=PRESENTATION_STYLE_ASSIGNMENT((#1951));
#1943=SURFACE_STYLE_USAGE(.BOTH.,#1952);
#1944=SURFACE_STYLE_USAGE(.BOTH.,#1953);
#1945=SURFACE_STYLE_USAGE(.BOTH.,#1954);
#1946=SURFACE_STYLE_USAGE(.BOTH.,#1955);
#1947=SURFACE_STYLE_USAGE(.BOTH.,#1956);
#1948=SURFACE_STYLE_USAGE(.BOTH.,#1957);
#1949=SURFACE_STYLE_USAGE(.BOTH.,#1958);
#1950=SURFACE_STYLE_USAGE(.BOTH.,#1959);
#1951=SURFACE_STYLE_USAGE(.BOTH.,#1960);
#1952=SURFACE_SIDE_STYLE('',(#1961));
#1953=SURFACE_SIDE_STYLE('',(#1962));
#1954=SURFACE_SIDE_STYLE('',(#1963));
#1955=SURFACE_SIDE_STYLE('',(#1964));
#1956=SURFACE_SIDE_STYLE('',(#1965));
#1957=SURFACE_SIDE_STYLE('',(#1966));
#1958=SURFACE_SIDE_STYLE('',(#1967));
#1959=SURFACE_SIDE_STYLE('',(#1968));
#1960=SURFACE_SIDE_STYLE('',(#1969));
#1961=SURFACE_STYLE_FILL_AREA(#1970);
#1962=SURFACE_STYLE_FILL_AREA(#1971);
#1963=SURFACE_STYLE_FILL_AREA(#1972);
#1964=SURFACE_STYLE_FILL_AREA(#1973);
#1965=SURFACE_STYLE_FILL_AREA(#1974);
#1966=SURFACE_STYLE_FILL_AREA(#1975);
#1967=SURFACE_STYLE_FILL_AREA(#1976);
#1968=SURFACE_STYLE_FILL_AREA(#1977);
#1969=SURFACE_STYLE_FILL_AREA(#1978);
#1970=FILL_AREA_STYLE('Steel - Satin',(#1979));
#1971=FILL_AREA_STYLE('Titanium - Satin',(#1980));
#1972=FILL_AREA_STYLE('Stainless Steel - Polished',(#1981));
#1973=FILL_AREA_STYLE('Aluminum - Polished',(#1982));
#1974=FILL_AREA_STYLE('Titanium - Polished',(#1983));
#1975=FILL_AREA_STYLE('Paint - Enamel Glossy (Red)',(#1984));
#1976=FILL_AREA_STYLE('Copper - Polished',(#1985));
#1977=FILL_AREA_STYLE('Opaque(254,80,0)',(#1986));
#1978=FILL_AREA_STYLE('Opaque(68,119,102)',(#1987));
#1979=FILL_AREA_STYLE_COLOUR('Steel - Satin',#1988);
#1980=FILL_AREA_STYLE_COLOUR('Titanium - Satin',#1989);
#1981=FILL_AREA_STYLE_COLOUR('Stainless Steel - Polished',#1990);
#1982=FILL_AREA_STYLE_COLOUR('Aluminum - Polished',#1991);
#1983=FILL_AREA_STYLE_COLOUR('Titanium - Polished',#1992);
#1984=FILL_AREA_STYLE_COLOUR('Paint - Enamel Glossy (Red)',#1993);
#1985=FILL_AREA_STYLE_COLOUR('Copper - Polished',#1994);
#1986=FILL_AREA_STYLE_COLOUR('Opaque(254,80,0)',#1995);
#1987=FILL_AREA_STYLE_COLOUR('Opaque(68,119,102)',#1996);
#1988=COLOUR_RGB('Steel - Satin',0.627450980392157,0.627450980392157,0.627450980392157);
#1989=COLOUR_RGB('Titanium - Satin',0.858823529411765,0.847058823529412,
0.827450980392157);
#1990=COLOUR_RGB('Stainless Steel - Polished',0.796078431372549,0.796078431372549,
0.796078431372549);
#1991=COLOUR_RGB('Aluminum - Polished',0.96078431372549,0.96078431372549,
0.964705882352941);
#1992=COLOUR_RGB('Titanium - Polished',0.749019607843137,0.729411764705882,
0.701960784313725);
#1993=COLOUR_RGB('Paint - Enamel Glossy (Red)',0.768627450980392,0.207843137254902,
0.152941176470588);
#1994=COLOUR_RGB('Copper - Polished',0.929411764705882,0.807843137254902,
0.764705882352941);
#1995=COLOUR_RGB('Opaque(254,80,0)',0.996078431372549,0.313725490196078,
0.);
#1996=COLOUR_RGB('Opaque(68,119,102)',0.266666666666667,0.466666666666667,
0.4);
ENDSEC;
END-ISO-10303-21;
